<svg width="562" height="5121" viewBox="0 0 562 5121" fill="none" xmlns="http://www.w3.org/2000/svg">
<rect x="401.5" y="4560.5" width="80" height="80" transform="rotate(90 401.5 4560.5)" fill="#9FF820"/>
<rect x="241.5" y="4720.5" width="80" height="80" transform="rotate(90 241.5 4720.5)" fill="#9FF820"/>
<rect x="401.5" y="4720.5" width="80" height="80" transform="rotate(90 401.5 4720.5)" fill="#9FF820"/>
<rect x="241.5" y="4560.5" width="80" height="80" transform="rotate(90 241.5 4560.5)" fill="#9FF820"/>
<rect x="321.5" y="4640.5" width="80" height="80" transform="rotate(90 321.5 4640.5)" fill="#9FF820"/>
<rect x="321.5" y="4880.5" width="80" height="80" fill="#9FF820"/>
<rect x="161.5" y="4800.5" width="80" height="80" fill="#9FF820"/>
<rect x="81.5" y="4800.5" width="80" height="80" fill="#9FF820"/>
<rect x="161.5" y="4960.5" width="80" height="80" fill="#9FF820"/>
<rect x="241.5" y="4800.5" width="80" height="80" fill="#9FF820"/>
<rect x="241.5" y="4880.5" width="80" height="80" fill="#9FF820"/>
<rect x="241.5" y="5040.5" width="80" height="80" fill="#9FF820"/>
<rect x="161.5" y="4480.5" width="80" height="80" fill="#9FF820"/>
<rect x="400.5" y="4000.5" width="80" height="80" transform="rotate(90 400.5 4000.5)" fill="#9FF820"/>
<rect x="241.5" y="4160.5" width="80" height="80" transform="rotate(90 241.5 4160.5)" fill="#9FF820"/>
<rect x="401.5" y="4160.5" width="80" height="80" transform="rotate(90 401.5 4160.5)" fill="#9FF820"/>
<rect x="240.5" y="4000.5" width="80" height="80" transform="rotate(90 240.5 4000.5)" fill="#9FF820"/>
<rect x="321.5" y="4080.5" width="80" height="80" transform="rotate(90 321.5 4080.5)" fill="#9FF820"/>
<rect x="161.5" y="4320.5" width="80" height="80" fill="#9FF820"/>
<rect x="81.5" y="4240.5" width="80" height="80" fill="#9FF820"/>
<rect x="161.5" y="4400.5" width="80" height="80" fill="#9FF820"/>
<rect x="241.5" y="4240.5" width="80" height="80" fill="#9FF820"/>
<rect x="401.5" y="4240.5" width="80" height="80" fill="#9FF820"/>
<rect x="241.5" y="4320.5" width="80" height="80" fill="#9FF820"/>
<rect x="241.5" y="4480.5" width="80" height="80" fill="#9FF820"/>
<rect x="160.5" y="3920.5" width="80" height="80" fill="#9FF820"/>
<rect x="481.5" y="4880.5" width="80" height="80" transform="rotate(90 481.5 4880.5)" fill="#9FF820"/>
<rect x="401.5" y="4720.5" width="80" height="80" transform="rotate(90 401.5 4720.5)" fill="#9FF820"/>
<rect x="481.5" y="4640.5" width="80" height="80" transform="rotate(90 481.5 4640.5)" fill="#9FF820"/>
<rect x="241.5" y="4800.5" width="80" height="80" fill="#9FF820"/>
<rect x="240.5" y="3840.5" width="80" height="80" fill="#9FF820"/>
<rect x="240.5" y="4000.5" width="80" height="80" fill="#9FF820"/>
<rect x="81.5" y="3840.5" width="80" height="80" fill="#9FF820"/>
<rect x="561.5" y="4800.5" width="80" height="80" transform="rotate(90 561.5 4800.5)" fill="#9FF820"/>
<rect x="401.5" y="4720.5" width="80" height="80" transform="rotate(90 401.5 4720.5)" fill="#9FF820"/>
<rect x="401.5" y="4960.5" width="80" height="80" transform="rotate(90 401.5 4960.5)" fill="#9FF820"/>
<rect x="241.5" y="4800.5" width="80" height="80" fill="#9FF820"/>
<rect x="81.5" y="4460.5" width="80" height="80" fill="#9FF820"/>
<rect x="81.5" y="4000.5" width="80" height="80" fill="#9FF820"/>
<rect x="401.5" y="5040.5" width="80" height="80" fill="#9FF820"/>
<rect x="481.5" y="4480.5" width="80" height="80" transform="rotate(90 481.5 4480.5)" fill="#9FF820"/>
<rect x="401.5" y="4720.5" width="80" height="80" transform="rotate(90 401.5 4720.5)" fill="#9FF820"/>
<rect x="400.5" y="3920.5" width="80" height="80" transform="rotate(90 400.5 3920.5)" fill="#9FF820"/>
<rect x="401.5" y="4320.5" width="80" height="80" transform="rotate(90 401.5 4320.5)" fill="#9FF820"/>
<rect x="241.5" y="4800.5" width="80" height="80" fill="#9FF820"/>
<rect x="400.5" y="3840.5" width="80" height="80" fill="#9FF820"/>
<rect x="321.5" y="4400.5" width="80" height="80" fill="#9FF820"/>
<rect x="400.5" y="3280.5" width="80" height="80" transform="rotate(90 400.5 3280.5)" fill="#9FF820"/>
<rect x="240.5" y="3440.5" width="80" height="80" transform="rotate(90 240.5 3440.5)" fill="#9FF820"/>
<rect x="400.5" y="3440.5" width="80" height="80" transform="rotate(90 400.5 3440.5)" fill="#9FF820"/>
<rect x="240.5" y="3280.5" width="80" height="80" transform="rotate(90 240.5 3280.5)" fill="#9FF820"/>
<rect x="320.5" y="3360.5" width="80" height="80" transform="rotate(90 320.5 3360.5)" fill="#9FF820"/>
<rect x="320.5" y="3600.5" width="80" height="80" fill="#9FF820"/>
<rect x="160.5" y="3520.5" width="80" height="80" fill="#9FF820"/>
<rect x="80.5" y="3520.5" width="80" height="80" fill="#9FF820"/>
<rect x="160.5" y="3680.5" width="80" height="80" fill="#9FF820"/>
<rect x="240.5" y="3520.5" width="80" height="80" fill="#9FF820"/>
<rect x="240.5" y="3600.5" width="80" height="80" fill="#9FF820"/>
<rect x="240.5" y="3760.5" width="80" height="80" fill="#9FF820"/>
<rect x="160.5" y="3200.5" width="80" height="80" fill="#9FF820"/>
<rect x="400.5" y="2720.5" width="80" height="80" transform="rotate(90 400.5 2720.5)" fill="#9FF820"/>
<rect x="240.5" y="2880.5" width="80" height="80" transform="rotate(90 240.5 2880.5)" fill="#9FF820"/>
<rect x="400.5" y="2880.5" width="80" height="80" transform="rotate(90 400.5 2880.5)" fill="#9FF820"/>
<rect x="240.5" y="2720.5" width="80" height="80" transform="rotate(90 240.5 2720.5)" fill="#9FF820"/>
<rect x="320.5" y="2800.5" width="80" height="80" transform="rotate(90 320.5 2800.5)" fill="#9FF820"/>
<rect x="160.5" y="3040.5" width="80" height="80" fill="#9FF820"/>
<rect x="80.5" y="2960.5" width="80" height="80" fill="#9FF820"/>
<rect x="160.5" y="3120.5" width="80" height="80" fill="#9FF820"/>
<rect x="240.5" y="2960.5" width="80" height="80" fill="#9FF820"/>
<rect x="400.5" y="2960.5" width="80" height="80" fill="#9FF820"/>
<rect x="240.5" y="3040.5" width="80" height="80" fill="#9FF820"/>
<rect x="240.5" y="3200.5" width="80" height="80" fill="#9FF820"/>
<rect x="160.5" y="2640.5" width="80" height="80" fill="#9FF820"/>
<rect x="480.5" y="3600.5" width="80" height="80" transform="rotate(90 480.5 3600.5)" fill="#9FF820"/>
<rect x="400.5" y="3440.5" width="80" height="80" transform="rotate(90 400.5 3440.5)" fill="#9FF820"/>
<rect x="480.5" y="3360.5" width="80" height="80" transform="rotate(90 480.5 3360.5)" fill="#9FF820"/>
<rect x="240.5" y="3520.5" width="80" height="80" fill="#9FF820"/>
<rect x="240.5" y="2560.5" width="80" height="80" fill="#9FF820"/>
<rect x="240.5" y="2720.5" width="80" height="80" fill="#9FF820"/>
<rect x="80.5" y="2560.5" width="80" height="80" fill="#9FF820"/>
<rect x="560.5" y="3520.5" width="80" height="80" transform="rotate(90 560.5 3520.5)" fill="#9FF820"/>
<rect x="400.5" y="3440.5" width="80" height="80" transform="rotate(90 400.5 3440.5)" fill="#9FF820"/>
<rect x="400.5" y="3680.5" width="80" height="80" transform="rotate(90 400.5 3680.5)" fill="#9FF820"/>
<rect x="240.5" y="3520.5" width="80" height="80" fill="#9FF820"/>
<rect x="80.5" y="3180.5" width="80" height="80" fill="#9FF820"/>
<rect x="80.5" y="2720.5" width="80" height="80" fill="#9FF820"/>
<rect x="400.5" y="3760.5" width="80" height="80" fill="#9FF820"/>
<rect x="480.5" y="3200.5" width="80" height="80" transform="rotate(90 480.5 3200.5)" fill="#9FF820"/>
<rect x="400.5" y="3440.5" width="80" height="80" transform="rotate(90 400.5 3440.5)" fill="#9FF820"/>
<rect x="400.5" y="2640.5" width="80" height="80" transform="rotate(90 400.5 2640.5)" fill="#9FF820"/>
<rect x="400.5" y="3040.5" width="80" height="80" transform="rotate(90 400.5 3040.5)" fill="#9FF820"/>
<rect x="240.5" y="3520.5" width="80" height="80" fill="#9FF820"/>
<rect x="320.5" y="2480.5" width="80" height="80" fill="#9FF820"/>
<rect x="320.5" y="3120.5" width="80" height="80" fill="#9FF820"/>
<rect x="400.5" y="2000.5" width="80" height="80" transform="rotate(90 400.5 2000.5)" fill="#9FF820"/>
<rect x="240.5" y="2160.5" width="80" height="80" transform="rotate(90 240.5 2160.5)" fill="#9FF820"/>
<rect x="400.5" y="2160.5" width="80" height="80" transform="rotate(90 400.5 2160.5)" fill="#9FF820"/>
<rect x="240.5" y="2000.5" width="80" height="80" transform="rotate(90 240.5 2000.5)" fill="#9FF820"/>
<rect x="320.5" y="2080.5" width="80" height="80" transform="rotate(90 320.5 2080.5)" fill="#9FF820"/>
<rect x="320.5" y="2320.5" width="80" height="80" fill="#9FF820"/>
<rect x="160.5" y="2240.5" width="80" height="80" fill="#9FF820"/>
<rect x="0.5" y="2320.5" width="80" height="80" fill="#9FF820"/>
<rect x="160.5" y="2400.5" width="80" height="80" fill="#9FF820"/>
<rect x="240.5" y="2240.5" width="80" height="80" fill="#9FF820"/>
<rect x="240.5" y="2320.5" width="80" height="80" fill="#9FF820"/>
<rect x="160.5" y="2480.5" width="80" height="80" fill="#9FF820"/>
<rect x="160.5" y="1920.5" width="80" height="80" fill="#9FF820"/>
<rect x="399.5" y="1440.5" width="80" height="80" transform="rotate(90 399.5 1440.5)" fill="#9FF820"/>
<rect x="240.5" y="1600.5" width="80" height="80" transform="rotate(90 240.5 1600.5)" fill="#9FF820"/>
<rect x="400.5" y="1600.5" width="80" height="80" transform="rotate(90 400.5 1600.5)" fill="#9FF820"/>
<rect x="239.5" y="1440.5" width="80" height="80" transform="rotate(90 239.5 1440.5)" fill="#9FF820"/>
<rect x="320.5" y="1520.5" width="80" height="80" transform="rotate(90 320.5 1520.5)" fill="#9FF820"/>
<rect x="160.5" y="1760.5" width="80" height="80" fill="#9FF820"/>
<rect x="80.5" y="1680.5" width="80" height="80" fill="#9FF820"/>
<rect x="160.5" y="1840.5" width="80" height="80" fill="#9FF820"/>
<rect x="240.5" y="1680.5" width="80" height="80" fill="#9FF820"/>
<rect x="480.5" y="1680.5" width="80" height="80" fill="#9FF820"/>
<rect x="240.5" y="1760.5" width="80" height="80" fill="#9FF820"/>
<rect x="240.5" y="1920.5" width="80" height="80" fill="#9FF820"/>
<rect x="159.5" y="1360.5" width="80" height="80" fill="#9FF820"/>
<rect x="480.5" y="2400.5" width="80" height="80" transform="rotate(90 480.5 2400.5)" fill="#9FF820"/>
<rect x="400.5" y="2160.5" width="80" height="80" transform="rotate(90 400.5 2160.5)" fill="#9FF820"/>
<rect x="480.5" y="2080.5" width="80" height="80" transform="rotate(90 480.5 2080.5)" fill="#9FF820"/>
<rect x="240.5" y="2240.5" width="80" height="80" fill="#9FF820"/>
<rect x="239.5" y="1280.5" width="80" height="80" fill="#9FF820"/>
<rect x="239.5" y="1440.5" width="80" height="80" fill="#9FF820"/>
<rect x="80.5" y="1280.5" width="80" height="80" fill="#9FF820"/>
<rect x="560.5" y="2240.5" width="80" height="80" transform="rotate(90 560.5 2240.5)" fill="#9FF820"/>
<rect x="400.5" y="2160.5" width="80" height="80" transform="rotate(90 400.5 2160.5)" fill="#9FF820"/>
<rect x="320.5" y="2400.5" width="80" height="80" transform="rotate(90 320.5 2400.5)" fill="#9FF820"/>
<rect x="240.5" y="2240.5" width="80" height="80" fill="#9FF820"/>
<rect x="40.5" y="1840.5" width="80" height="80" fill="#9FF820"/>
<rect x="80.5" y="1440.5" width="80" height="80" fill="#9FF820"/>
<rect x="400.5" y="2560.5" width="80" height="80" fill="#9FF820"/>
<rect x="480.5" y="1920.5" width="80" height="80" transform="rotate(90 480.5 1920.5)" fill="#9FF820"/>
<rect x="400.5" y="2160.5" width="80" height="80" transform="rotate(90 400.5 2160.5)" fill="#9FF820"/>
<rect x="399.5" y="1360.5" width="80" height="80" transform="rotate(90 399.5 1360.5)" fill="#9FF820"/>
<rect x="400.5" y="1760.5" width="80" height="80" transform="rotate(90 400.5 1760.5)" fill="#9FF820"/>
<rect x="240.5" y="2240.5" width="80" height="80" fill="#9FF820"/>
<rect x="399.5" y="1280.5" width="80" height="80" fill="#9FF820"/>
<rect x="320.5" y="1840.5" width="80" height="80" fill="#9FF820"/>
<rect x="399.5" y="720.501" width="80" height="80" transform="rotate(90 399.5 720.501)" fill="#9FF820"/>
<rect x="239.5" y="880.501" width="80" height="80" transform="rotate(90 239.5 880.501)" fill="#9FF820"/>
<rect x="399.5" y="880.501" width="80" height="80" transform="rotate(90 399.5 880.501)" fill="#9FF820"/>
<rect x="239.5" y="720.501" width="80" height="80" transform="rotate(90 239.5 720.501)" fill="#9FF820"/>
<rect x="319.5" y="800.501" width="80" height="80" transform="rotate(90 319.5 800.501)" fill="#9FF820"/>
<rect x="319.5" y="1040.5" width="80" height="80" fill="#9FF820"/>
<rect x="159.5" y="960.501" width="80" height="80" fill="#9FF820"/>
<rect x="79.5" y="960.501" width="80" height="80" fill="#9FF820"/>
<rect x="159.5" y="1120.5" width="80" height="80" fill="#9FF820"/>
<rect x="239.5" y="960.501" width="80" height="80" fill="#9FF820"/>
<rect x="239.5" y="1040.5" width="80" height="80" fill="#9FF820"/>
<rect x="239.5" y="1200.5" width="80" height="80" fill="#9FF820"/>
<rect x="159.5" y="640.501" width="80" height="80" fill="#9FF820"/>
<rect x="399.5" y="160.5" width="80" height="80" transform="rotate(90 399.5 160.5)" fill="#9FF820"/>
<rect x="239.5" y="320.5" width="80" height="80" transform="rotate(90 239.5 320.5)" fill="#9FF820"/>
<rect x="399.5" y="320.5" width="80" height="80" transform="rotate(90 399.5 320.5)" fill="#9FF820"/>
<rect x="239.5" y="160.5" width="80" height="80" transform="rotate(90 239.5 160.5)" fill="#9FF820"/>
<rect x="319.5" y="240.5" width="80" height="80" transform="rotate(90 319.5 240.5)" fill="#9FF820"/>
<rect x="159.5" y="480.5" width="80" height="80" fill="#9FF820"/>
<rect x="79.5" y="400.5" width="80" height="80" fill="#9FF820"/>
<rect x="159.5" y="560.501" width="80" height="80" fill="#9FF820"/>
<rect x="239.5" y="400.5" width="80" height="80" fill="#9FF820"/>
<rect x="399.5" y="400.5" width="80" height="80" fill="#9FF820"/>
<rect x="239.5" y="480.5" width="80" height="80" fill="#9FF820"/>
<rect x="239.5" y="640.501" width="80" height="80" fill="#9FF820"/>
<rect x="159.5" y="80.5" width="80" height="80" fill="#9FF820"/>
<rect x="479.5" y="1040.5" width="80" height="80" transform="rotate(90 479.5 1040.5)" fill="#9FF820"/>
<rect x="399.5" y="880.501" width="80" height="80" transform="rotate(90 399.5 880.501)" fill="#9FF820"/>
<rect x="479.5" y="800.501" width="80" height="80" transform="rotate(90 479.5 800.501)" fill="#9FF820"/>
<rect x="239.5" y="960.501" width="80" height="80" fill="#9FF820"/>
<rect x="239.5" y="0.499996" width="80" height="80" fill="#9FF820"/>
<rect x="239.5" y="160.5" width="80" height="80" fill="#9FF820"/>
<rect x="79.5" y="0.499989" width="80" height="80" fill="#9FF820"/>
<rect x="559.5" y="960.501" width="80" height="80" transform="rotate(90 559.5 960.501)" fill="#9FF820"/>
<rect x="399.5" y="880.501" width="80" height="80" transform="rotate(90 399.5 880.501)" fill="#9FF820"/>
<rect x="399.5" y="1120.5" width="80" height="80" transform="rotate(90 399.5 1120.5)" fill="#9FF820"/>
<rect x="239.5" y="960.501" width="80" height="80" fill="#9FF820"/>
<rect x="79.5" y="620.501" width="80" height="80" fill="#9FF820"/>
<rect x="79.5" y="160.5" width="80" height="80" fill="#9FF820"/>
<rect x="399.5" y="1200.5" width="80" height="80" fill="#9FF820"/>
<rect x="479.5" y="640.501" width="80" height="80" transform="rotate(90 479.5 640.501)" fill="#9FF820"/>
<rect x="399.5" y="880.501" width="80" height="80" transform="rotate(90 399.5 880.501)" fill="#9FF820"/>
<rect x="399.5" y="80.5" width="80" height="80" transform="rotate(90 399.5 80.5)" fill="#9FF820"/>
<rect x="399.5" y="480.5" width="80" height="80" transform="rotate(90 399.5 480.5)" fill="#9FF820"/>
<rect x="239.5" y="960.501" width="80" height="80" fill="#9FF820"/>
<rect x="399.5" y="0.500004" width="80" height="80" fill="#9FF820"/>
<rect x="319.5" y="560.501" width="80" height="80" fill="#9FF820"/>
</svg>
