<svg width="501" height="55" viewBox="0 0 501 55" fill="none" xmlns="http://www.w3.org/2000/svg">
<rect x="445.42" y="15.7325" width="7.8125" height="7.8125" fill="#9FF820"/>
<rect x="461.045" y="31.3575" width="7.8125" height="7.8125" fill="#9FF820"/>
<rect x="461.045" y="15.7325" width="7.8125" height="7.8125" fill="#9FF820"/>
<rect x="445.42" y="31.3575" width="7.8125" height="7.8125" fill="#9FF820"/>
<rect x="453.232" y="23.545" width="7.8125" height="7.8125" fill="#9FF820"/>
<rect x="476.67" y="23.545" width="7.8125" height="7.8125" transform="rotate(-90 476.67 23.545)" fill="#9FF820"/>
<rect x="468.857" y="39.1699" width="7.8125" height="7.8125" transform="rotate(-90 468.857 39.1699)" fill="#9FF820"/>
<rect x="468.857" y="46.9824" width="7.8125" height="7.8125" transform="rotate(-90 468.857 46.9824)" fill="#9FF820"/>
<rect x="484.482" y="39.1699" width="7.8125" height="7.8125" transform="rotate(-90 484.482 39.1699)" fill="#9FF820"/>
<rect x="468.857" y="31.3575" width="7.8125" height="7.8125" transform="rotate(-90 468.857 31.3575)" fill="#9FF820"/>
<rect x="476.67" y="31.3575" width="7.8125" height="7.8125" transform="rotate(-90 476.67 31.3575)" fill="#9FF820"/>
<rect x="492.295" y="31.3574" width="7.8125" height="7.8125" transform="rotate(-90 492.295 31.3574)" fill="#9FF820"/>
<rect x="437.607" y="39.1699" width="7.8125" height="7.8125" transform="rotate(-90 437.607 39.1699)" fill="#9FF820"/>
<rect x="390.732" y="15.8301" width="7.8125" height="7.8125" fill="#9FF820"/>
<rect x="406.357" y="31.3575" width="7.8125" height="7.8125" fill="#9FF820"/>
<rect x="406.357" y="15.7325" width="7.8125" height="7.8125" fill="#9FF820"/>
<rect x="390.732" y="31.4551" width="7.8125" height="7.8125" fill="#9FF820"/>
<rect x="398.545" y="23.545" width="7.8125" height="7.8125" fill="#9FF820"/>
<rect x="421.982" y="39.1699" width="7.8125" height="7.8125" transform="rotate(-90 421.982 39.1699)" fill="#9FF820"/>
<rect x="414.17" y="46.9824" width="7.8125" height="7.8125" transform="rotate(-90 414.17 46.9824)" fill="#9FF820"/>
<rect x="429.795" y="39.1699" width="7.8125" height="7.8125" transform="rotate(-90 429.795 39.1699)" fill="#9FF820"/>
<rect x="414.17" y="31.3575" width="7.8125" height="7.8125" transform="rotate(-90 414.17 31.3575)" fill="#9FF820"/>
<rect x="414.17" y="15.7325" width="7.8125" height="7.8125" transform="rotate(-90 414.17 15.7325)" fill="#9FF820"/>
<rect x="421.982" y="31.3575" width="7.8125" height="7.8125" transform="rotate(-90 421.982 31.3575)" fill="#9FF820"/>
<rect x="437.607" y="31.3575" width="7.8125" height="7.8125" transform="rotate(-90 437.607 31.3575)" fill="#9FF820"/>
<rect x="382.92" y="39.2676" width="7.8125" height="7.8125" transform="rotate(-90 382.92 39.2676)" fill="#9FF820"/>
<rect x="476.67" y="7.91995" width="7.8125" height="7.8125" fill="#9FF820"/>
<rect x="461.045" y="15.7325" width="7.8125" height="7.8125" fill="#9FF820"/>
<rect x="453.232" y="7.91995" width="7.8125" height="7.8125" fill="#9FF820"/>
<rect x="468.857" y="31.3575" width="7.8125" height="7.8125" transform="rotate(-90 468.857 31.3575)" fill="#9FF820"/>
<rect x="375.107" y="31.4551" width="7.8125" height="7.8125" transform="rotate(-90 375.107 31.4551)" fill="#9FF820"/>
<rect x="390.732" y="31.4551" width="7.8125" height="7.8125" transform="rotate(-90 390.732 31.4551)" fill="#9FF820"/>
<rect x="375.107" y="46.9824" width="7.8125" height="7.8125" transform="rotate(-90 375.107 46.9824)" fill="#9FF820"/>
<rect x="468.857" y="0.107452" width="7.8125" height="7.8125" fill="#9FF820"/>
<rect x="461.045" y="15.7325" width="7.8125" height="7.8125" fill="#9FF820"/>
<rect x="484.482" y="15.7324" width="7.8125" height="7.8125" fill="#9FF820"/>
<rect x="468.857" y="31.3575" width="7.8125" height="7.8125" transform="rotate(-90 468.857 31.3575)" fill="#9FF820"/>
<rect x="435.654" y="46.9824" width="7.8125" height="7.8125" transform="rotate(-90 435.654 46.9824)" fill="#9FF820"/>
<rect x="390.732" y="46.9824" width="7.8125" height="7.8125" transform="rotate(-90 390.732 46.9824)" fill="#9FF820"/>
<rect x="492.295" y="15.7324" width="7.8125" height="7.8125" transform="rotate(-90 492.295 15.7324)" fill="#9FF820"/>
<rect x="437.607" y="7.91995" width="7.8125" height="7.8125" fill="#9FF820"/>
<rect x="461.045" y="15.7325" width="7.8125" height="7.8125" fill="#9FF820"/>
<rect x="382.92" y="15.8301" width="7.8125" height="7.8125" fill="#9FF820"/>
<rect x="421.982" y="15.7325" width="7.8125" height="7.8125" fill="#9FF820"/>
<rect x="468.857" y="31.3575" width="7.8125" height="7.8125" transform="rotate(-90 468.857 31.3575)" fill="#9FF820"/>
<rect x="375.107" y="15.8301" width="7.8125" height="7.8125" transform="rotate(-90 375.107 15.8301)" fill="#9FF820"/>
<rect x="429.795" y="23.545" width="7.8125" height="7.8125" transform="rotate(-90 429.795 23.545)" fill="#9FF820"/>
<rect x="320.42" y="15.8301" width="7.8125" height="7.8125" fill="#9FF820"/>
<rect x="336.045" y="31.4551" width="7.8125" height="7.8125" fill="#9FF820"/>
<rect x="336.045" y="15.8301" width="7.8125" height="7.8125" fill="#9FF820"/>
<rect x="320.42" y="31.4551" width="7.8125" height="7.8125" fill="#9FF820"/>
<rect x="328.232" y="23.6426" width="7.8125" height="7.8125" fill="#9FF820"/>
<rect x="351.67" y="23.6426" width="7.8125" height="7.8125" transform="rotate(-90 351.67 23.6426)" fill="#9FF820"/>
<rect x="343.857" y="39.2676" width="7.8125" height="7.8125" transform="rotate(-90 343.857 39.2676)" fill="#9FF820"/>
<rect x="343.857" y="47.0801" width="7.8125" height="7.8125" transform="rotate(-90 343.857 47.0801)" fill="#9FF820"/>
<rect x="359.482" y="39.2676" width="7.8125" height="7.8125" transform="rotate(-90 359.482 39.2676)" fill="#9FF820"/>
<rect x="343.857" y="31.4551" width="7.8125" height="7.8125" transform="rotate(-90 343.857 31.4551)" fill="#9FF820"/>
<rect x="351.67" y="31.4551" width="7.8125" height="7.8125" transform="rotate(-90 351.67 31.4551)" fill="#9FF820"/>
<rect x="367.295" y="31.4551" width="7.8125" height="7.8125" transform="rotate(-90 367.295 31.4551)" fill="#9FF820"/>
<rect x="312.607" y="39.2676" width="7.8125" height="7.8125" transform="rotate(-90 312.607 39.2676)" fill="#9FF820"/>
<rect x="265.732" y="15.8301" width="7.8125" height="7.8125" fill="#9FF820"/>
<rect x="281.357" y="31.4551" width="7.8125" height="7.8125" fill="#9FF820"/>
<rect x="281.357" y="15.8301" width="7.8125" height="7.8125" fill="#9FF820"/>
<rect x="265.732" y="31.4551" width="7.8125" height="7.8125" fill="#9FF820"/>
<rect x="273.545" y="23.6426" width="7.8125" height="7.8125" fill="#9FF820"/>
<rect x="296.982" y="39.2676" width="7.8125" height="7.8125" transform="rotate(-90 296.982 39.2676)" fill="#9FF820"/>
<rect x="289.17" y="47.0801" width="7.8125" height="7.8125" transform="rotate(-90 289.17 47.0801)" fill="#9FF820"/>
<rect x="304.795" y="39.2676" width="7.8125" height="7.8125" transform="rotate(-90 304.795 39.2676)" fill="#9FF820"/>
<rect x="289.17" y="31.4551" width="7.8125" height="7.8125" transform="rotate(-90 289.17 31.4551)" fill="#9FF820"/>
<rect x="289.17" y="15.8301" width="7.8125" height="7.8125" transform="rotate(-90 289.17 15.8301)" fill="#9FF820"/>
<rect x="296.982" y="31.4551" width="7.8125" height="7.8125" transform="rotate(-90 296.982 31.4551)" fill="#9FF820"/>
<rect x="312.607" y="31.4551" width="7.8125" height="7.8125" transform="rotate(-90 312.607 31.4551)" fill="#9FF820"/>
<rect x="257.92" y="39.2676" width="7.8125" height="7.8125" transform="rotate(-90 257.92 39.2676)" fill="#9FF820"/>
<rect x="351.67" y="8.01761" width="7.8125" height="7.8125" fill="#9FF820"/>
<rect x="336.045" y="15.8301" width="7.8125" height="7.8125" fill="#9FF820"/>
<rect x="328.232" y="8.01761" width="7.8125" height="7.8125" fill="#9FF820"/>
<rect x="343.857" y="31.4551" width="7.8125" height="7.8125" transform="rotate(-90 343.857 31.4551)" fill="#9FF820"/>
<rect x="250.107" y="31.4551" width="7.8125" height="7.8125" transform="rotate(-90 250.107 31.4551)" fill="#9FF820"/>
<rect x="265.732" y="31.4551" width="7.8125" height="7.8125" transform="rotate(-90 265.732 31.4551)" fill="#9FF820"/>
<rect x="250.107" y="47.0801" width="7.8125" height="7.8125" transform="rotate(-90 250.107 47.0801)" fill="#9FF820"/>
<rect x="343.857" y="0.205109" width="7.8125" height="7.8125" fill="#9FF820"/>
<rect x="336.045" y="15.8301" width="7.8125" height="7.8125" fill="#9FF820"/>
<rect x="359.482" y="15.8301" width="7.8125" height="7.8125" fill="#9FF820"/>
<rect x="343.857" y="31.4551" width="7.8125" height="7.8125" transform="rotate(-90 343.857 31.4551)" fill="#9FF820"/>
<rect x="310.654" y="47.0801" width="7.8125" height="7.8125" transform="rotate(-90 310.654 47.0801)" fill="#9FF820"/>
<rect x="265.732" y="47.0801" width="7.8125" height="7.8125" transform="rotate(-90 265.732 47.0801)" fill="#9FF820"/>
<rect x="367.295" y="15.8301" width="7.8125" height="7.8125" transform="rotate(-90 367.295 15.8301)" fill="#9FF820"/>
<rect x="312.607" y="8.01761" width="7.8125" height="7.8125" fill="#9FF820"/>
<rect x="336.045" y="15.8301" width="7.8125" height="7.8125" fill="#9FF820"/>
<rect x="257.92" y="15.8301" width="7.8125" height="7.8125" fill="#9FF820"/>
<rect x="296.982" y="15.8301" width="7.8125" height="7.8125" fill="#9FF820"/>
<rect x="343.857" y="31.4551" width="7.8125" height="7.8125" transform="rotate(-90 343.857 31.4551)" fill="#9FF820"/>
<rect x="242.295" y="23.6426" width="7.8125" height="7.8125" transform="rotate(-90 242.295 23.6426)" fill="#9FF820"/>
<rect x="304.795" y="23.6426" width="7.8125" height="7.8125" transform="rotate(-90 304.795 23.6426)" fill="#9FF820"/>
<rect x="195.42" y="15.8301" width="7.8125" height="7.8125" fill="#9FF820"/>
<rect x="211.045" y="31.4551" width="7.8125" height="7.8125" fill="#9FF820"/>
<rect x="211.045" y="15.8301" width="7.8125" height="7.8125" fill="#9FF820"/>
<rect x="195.42" y="31.4551" width="7.8125" height="7.8125" fill="#9FF820"/>
<rect x="203.232" y="23.6426" width="7.8125" height="7.8125" fill="#9FF820"/>
<rect x="226.67" y="23.6426" width="7.8125" height="7.8125" transform="rotate(-90 226.67 23.6426)" fill="#9FF820"/>
<rect x="218.857" y="39.2676" width="7.8125" height="7.8125" transform="rotate(-90 218.857 39.2676)" fill="#9FF820"/>
<rect x="226.67" y="54.8926" width="7.8125" height="7.8125" transform="rotate(-90 226.67 54.8926)" fill="#9FF820"/>
<rect x="234.482" y="39.2676" width="7.8125" height="7.8125" transform="rotate(-90 234.482 39.2676)" fill="#9FF820"/>
<rect x="218.857" y="31.4551" width="7.8125" height="7.8125" transform="rotate(-90 218.857 31.4551)" fill="#9FF820"/>
<rect x="226.67" y="31.4551" width="7.8125" height="7.8125" transform="rotate(-90 226.67 31.4551)" fill="#9FF820"/>
<rect x="242.295" y="39.2676" width="7.8125" height="7.8125" transform="rotate(-90 242.295 39.2676)" fill="#9FF820"/>
<rect x="187.607" y="39.2676" width="7.8125" height="7.8125" transform="rotate(-90 187.607 39.2676)" fill="#9FF820"/>
<rect x="140.732" y="15.9277" width="7.8125" height="7.8125" fill="#9FF820"/>
<rect x="156.357" y="31.4551" width="7.8125" height="7.8125" fill="#9FF820"/>
<rect x="156.357" y="15.8301" width="7.8125" height="7.8125" fill="#9FF820"/>
<rect x="140.732" y="31.5527" width="7.8125" height="7.8125" fill="#9FF820"/>
<rect x="148.545" y="23.6426" width="7.8125" height="7.8125" fill="#9FF820"/>
<rect x="171.982" y="39.2676" width="7.8125" height="7.8125" transform="rotate(-90 171.982 39.2676)" fill="#9FF820"/>
<rect x="164.17" y="47.0801" width="7.8125" height="7.8125" transform="rotate(-90 164.17 47.0801)" fill="#9FF820"/>
<rect x="179.795" y="39.2676" width="7.8125" height="7.8125" transform="rotate(-90 179.795 39.2676)" fill="#9FF820"/>
<rect x="164.17" y="31.4551" width="7.8125" height="7.8125" transform="rotate(-90 164.17 31.4551)" fill="#9FF820"/>
<rect x="164.17" y="8.01759" width="7.8125" height="7.8125" transform="rotate(-90 164.17 8.01759)" fill="#9FF820"/>
<rect x="171.982" y="31.4551" width="7.8125" height="7.8125" transform="rotate(-90 171.982 31.4551)" fill="#9FF820"/>
<rect x="187.607" y="31.4551" width="7.8125" height="7.8125" transform="rotate(-90 187.607 31.4551)" fill="#9FF820"/>
<rect x="132.92" y="39.3652" width="7.8125" height="7.8125" transform="rotate(-90 132.92 39.3652)" fill="#9FF820"/>
<rect x="234.482" y="8.01759" width="7.8125" height="7.8125" fill="#9FF820"/>
<rect x="211.045" y="15.8301" width="7.8125" height="7.8125" fill="#9FF820"/>
<rect x="203.232" y="8.01759" width="7.8125" height="7.8125" fill="#9FF820"/>
<rect x="218.857" y="31.4551" width="7.8125" height="7.8125" transform="rotate(-90 218.857 31.4551)" fill="#9FF820"/>
<rect x="125.107" y="31.5527" width="7.8125" height="7.8125" transform="rotate(-90 125.107 31.5527)" fill="#9FF820"/>
<rect x="140.732" y="31.5527" width="7.8125" height="7.8125" transform="rotate(-90 140.732 31.5527)" fill="#9FF820"/>
<rect x="125.107" y="47.0801" width="7.8125" height="7.8125" transform="rotate(-90 125.107 47.0801)" fill="#9FF820"/>
<rect x="218.857" y="0.205093" width="7.8125" height="7.8125" fill="#9FF820"/>
<rect x="211.045" y="15.8301" width="7.8125" height="7.8125" fill="#9FF820"/>
<rect x="234.482" y="23.6426" width="7.8125" height="7.8125" fill="#9FF820"/>
<rect x="218.857" y="31.4551" width="7.8125" height="7.8125" transform="rotate(-90 218.857 31.4551)" fill="#9FF820"/>
<rect x="179.795" y="50.9863" width="7.8125" height="7.8125" transform="rotate(-90 179.795 50.9863)" fill="#9FF820"/>
<rect x="140.732" y="47.0801" width="7.8125" height="7.8125" transform="rotate(-90 140.732 47.0801)" fill="#9FF820"/>
<rect x="250.107" y="15.8301" width="7.8125" height="7.8125" transform="rotate(-90 250.107 15.8301)" fill="#9FF820"/>
<rect x="187.607" y="8.01759" width="7.8125" height="7.8125" fill="#9FF820"/>
<rect x="211.045" y="15.8301" width="7.8125" height="7.8125" fill="#9FF820"/>
<rect x="132.92" y="15.9277" width="7.8125" height="7.8125" fill="#9FF820"/>
<rect x="171.982" y="15.8301" width="7.8125" height="7.8125" fill="#9FF820"/>
<rect x="218.857" y="31.4551" width="7.8125" height="7.8125" transform="rotate(-90 218.857 31.4551)" fill="#9FF820"/>
<rect x="125.107" y="15.9277" width="7.8125" height="7.8125" transform="rotate(-90 125.107 15.9277)" fill="#9FF820"/>
<rect x="179.795" y="23.6426" width="7.8125" height="7.8125" transform="rotate(-90 179.795 23.6426)" fill="#9FF820"/>
<rect x="70.4199" y="15.9278" width="7.8125" height="7.8125" fill="#9FF820"/>
<rect x="86.0449" y="31.5528" width="7.8125" height="7.8125" fill="#9FF820"/>
<rect x="86.0449" y="15.9278" width="7.8125" height="7.8125" fill="#9FF820"/>
<rect x="70.4199" y="31.5528" width="7.8125" height="7.8125" fill="#9FF820"/>
<rect x="78.2324" y="23.7403" width="7.8125" height="7.8125" fill="#9FF820"/>
<rect x="101.67" y="23.7402" width="7.8125" height="7.8125" transform="rotate(-90 101.67 23.7402)" fill="#9FF820"/>
<rect x="93.8574" y="39.3652" width="7.8125" height="7.8125" transform="rotate(-90 93.8574 39.3652)" fill="#9FF820"/>
<rect x="93.8574" y="47.1777" width="7.8125" height="7.8125" transform="rotate(-90 93.8574 47.1777)" fill="#9FF820"/>
<rect x="109.482" y="39.3652" width="7.8125" height="7.8125" transform="rotate(-90 109.482 39.3652)" fill="#9FF820"/>
<rect x="93.8574" y="31.5528" width="7.8125" height="7.8125" transform="rotate(-90 93.8574 31.5528)" fill="#9FF820"/>
<rect x="101.67" y="31.5527" width="7.8125" height="7.8125" transform="rotate(-90 101.67 31.5527)" fill="#9FF820"/>
<rect x="117.295" y="31.5527" width="7.8125" height="7.8125" transform="rotate(-90 117.295 31.5527)" fill="#9FF820"/>
<rect x="62.6074" y="39.3652" width="7.8125" height="7.8125" transform="rotate(-90 62.6074 39.3652)" fill="#9FF820"/>
<rect x="15.7324" y="15.9277" width="7.8125" height="7.8125" fill="#9FF820"/>
<rect x="31.3574" y="31.5527" width="7.8125" height="7.8125" fill="#9FF820"/>
<rect x="31.3574" y="15.9277" width="7.8125" height="7.8125" fill="#9FF820"/>
<rect x="15.7324" y="31.5527" width="7.8125" height="7.8125" fill="#9FF820"/>
<rect x="23.5449" y="23.7402" width="7.8125" height="7.8125" fill="#9FF820"/>
<rect x="46.9824" y="39.3652" width="7.8125" height="7.8125" transform="rotate(-90 46.9824 39.3652)" fill="#9FF820"/>
<rect x="39.1699" y="47.1777" width="7.8125" height="7.8125" transform="rotate(-90 39.1699 47.1777)" fill="#9FF820"/>
<rect x="54.7949" y="39.3652" width="7.8125" height="7.8125" transform="rotate(-90 54.7949 39.3652)" fill="#9FF820"/>
<rect x="39.1699" y="31.5527" width="7.8125" height="7.8125" transform="rotate(-90 39.1699 31.5527)" fill="#9FF820"/>
<rect x="39.1699" y="15.9277" width="7.8125" height="7.8125" transform="rotate(-90 39.1699 15.9277)" fill="#9FF820"/>
<rect x="46.9824" y="31.5527" width="7.8125" height="7.8125" transform="rotate(-90 46.9824 31.5527)" fill="#9FF820"/>
<rect x="62.6074" y="31.5527" width="7.8125" height="7.8125" transform="rotate(-90 62.6074 31.5527)" fill="#9FF820"/>
<rect x="7.91992" y="39.3652" width="7.8125" height="7.8125" transform="rotate(-90 7.91992 39.3652)" fill="#9FF820"/>
<rect x="101.67" y="8.11525" width="7.8125" height="7.8125" fill="#9FF820"/>
<rect x="86.0449" y="15.9278" width="7.8125" height="7.8125" fill="#9FF820"/>
<rect x="78.2324" y="8.11528" width="7.8125" height="7.8125" fill="#9FF820"/>
<rect x="93.8574" y="31.5528" width="7.8125" height="7.8125" transform="rotate(-90 93.8574 31.5528)" fill="#9FF820"/>
<rect x="0.107422" y="31.5527" width="7.8125" height="7.8125" transform="rotate(-90 0.107422 31.5527)" fill="#9FF820"/>
<rect x="15.7324" y="31.5527" width="7.8125" height="7.8125" transform="rotate(-90 15.7324 31.5527)" fill="#9FF820"/>
<rect x="0.107422" y="47.1777" width="7.8125" height="7.8125" transform="rotate(-90 0.107422 47.1777)" fill="#9FF820"/>
<rect x="93.8574" y="0.30278" width="7.8125" height="7.8125" fill="#9FF820"/>
<rect x="86.0449" y="15.9278" width="7.8125" height="7.8125" fill="#9FF820"/>
<rect x="109.482" y="15.9277" width="7.8125" height="7.8125" fill="#9FF820"/>
<rect x="93.8574" y="31.5528" width="7.8125" height="7.8125" transform="rotate(-90 93.8574 31.5528)" fill="#9FF820"/>
<rect x="60.6543" y="47.1777" width="7.8125" height="7.8125" transform="rotate(-90 60.6543 47.1777)" fill="#9FF820"/>
<rect x="15.7324" y="47.1777" width="7.8125" height="7.8125" transform="rotate(-90 15.7324 47.1777)" fill="#9FF820"/>
<rect x="117.295" y="15.9277" width="7.8125" height="7.8125" transform="rotate(-90 117.295 15.9277)" fill="#9FF820"/>
<rect x="62.6074" y="8.11528" width="7.8125" height="7.8125" fill="#9FF820"/>
<rect x="86.0449" y="15.9278" width="7.8125" height="7.8125" fill="#9FF820"/>
<rect x="7.91992" y="15.9277" width="7.8125" height="7.8125" fill="#9FF820"/>
<rect x="46.9824" y="15.9277" width="7.8125" height="7.8125" fill="#9FF820"/>
<rect x="93.8574" y="31.5528" width="7.8125" height="7.8125" transform="rotate(-90 93.8574 31.5528)" fill="#9FF820"/>
<rect x="0.107422" y="15.9277" width="7.8125" height="7.8125" transform="rotate(-90 0.107422 15.9277)" fill="#9FF820"/>
<rect x="54.7949" y="23.7403" width="7.8125" height="7.8125" transform="rotate(-90 54.7949 23.7403)" fill="#9FF820"/>
</svg>
