<svg width="100" height="56" viewBox="0 0 100 56" fill="none" xmlns="http://www.w3.org/2000/svg">
<rect x="88.8889" y="44.4445" width="11.1111" height="11.1111" transform="rotate(-90 88.8889 44.4445)" fill="#9FF820"/>
<rect x="22.2222" y="11.1111" width="11.1111" height="11.1111" fill="#9FF820"/>
<rect x="44.4443" y="33.3333" width="11.1111" height="11.1111" fill="#9FF820"/>
<rect x="44.4443" y="11.1111" width="11.1111" height="11.1111" fill="#9FF820"/>
<rect x="22.2222" y="33.3333" width="11.1111" height="11.1111" fill="#9FF820"/>
<rect x="33.3333" y="22.2222" width="11.1111" height="11.1111" fill="#9FF820"/>
<rect x="66.6667" y="44.4445" width="11.1111" height="11.1111" transform="rotate(-90 66.6667 44.4445)" fill="#9FF820"/>
<rect x="55.5557" y="55.5555" width="11.1111" height="11.1111" transform="rotate(-90 55.5557 55.5555)" fill="#9FF820"/>
<rect x="77.7778" y="44.4445" width="11.1111" height="11.1111" transform="rotate(-90 77.7778 44.4445)" fill="#9FF820"/>
<rect x="55.5557" y="33.3333" width="11.1111" height="11.1111" transform="rotate(-90 55.5557 33.3333)" fill="#9FF820"/>
<rect x="55.5557" y="11.1111" width="11.1111" height="11.1111" transform="rotate(-90 55.5557 11.1111)" fill="#9FF820"/>
<rect x="66.6667" y="33.3333" width="11.1111" height="11.1111" transform="rotate(-90 66.6667 33.3333)" fill="#9FF820"/>
<rect x="88.8889" y="33.3333" width="11.1111" height="11.1111" transform="rotate(-90 88.8889 33.3333)" fill="#9FF820"/>
<rect x="11.1111" y="44.4445" width="11.1111" height="11.1111" transform="rotate(-90 11.1111 44.4445)" fill="#9FF820"/>
<rect y="33.3333" width="11.1111" height="11.1111" transform="rotate(-90 0 33.3333)" fill="#9FF820"/>
<rect x="22.2222" y="33.3333" width="11.1111" height="11.1111" transform="rotate(-90 22.2222 33.3333)" fill="#9FF820"/>
<rect y="55.5555" width="11.1111" height="11.1111" transform="rotate(-90 0 55.5555)" fill="#9FF820"/>
<rect x="22.2222" y="55.5555" width="11.1111" height="11.1111" transform="rotate(-90 22.2222 55.5555)" fill="#9FF820"/>
<rect x="88.8889" y="3.05176e-05" width="11.1111" height="11.1111" fill="#9FF820"/>
<rect x="11.1111" y="11.1111" width="11.1111" height="11.1111" fill="#9FF820"/>
<rect x="66.6667" y="11.1111" width="11.1111" height="11.1111" fill="#9FF820"/>
<rect y="11.1111" width="11.1111" height="11.1111" transform="rotate(-90 0 11.1111)" fill="#9FF820"/>
<rect x="77.7778" y="22.2223" width="11.1111" height="11.1111" transform="rotate(-90 77.7778 22.2223)" fill="#9FF820"/>
</svg>
