<svg width="1044" height="1044" viewBox="0 0 1044 1044" fill="none" xmlns="http://www.w3.org/2000/svg">
<circle cx="522" cy="522" r="522" fill="#9FF820"/>
<g style="mix-blend-mode:multiply">
<g clip-path="url(#clip0_323_3067)">
<ellipse cx="860.5" cy="617.5" rx="113.5" ry="122.5" fill="white"/>
<path fill-rule="evenodd" clip-rule="evenodd" d="M506.499 169.5C512.166 169.5 517.832 169.5 523.499 169.5C529.016 170.358 534.682 171.191 540.499 172C552.952 173.59 558.285 180.424 556.499 192.5C578.236 197.466 599.57 203.966 620.499 212C647.806 224.979 673.806 239.979 698.499 257C714.535 268.033 729.035 280.866 741.999 295.5C751.613 309.447 761.613 323.114 771.999 336.5C776.621 343.738 780.121 351.405 782.499 359.5C799.881 361.774 814.381 369.44 825.999 382.5C848.228 415.742 856.728 452.075 851.499 491.5C853.287 491.215 854.954 491.548 856.499 492.5C852.255 501.986 847.755 511.32 842.999 520.5C839.588 521.293 836.088 521.793 832.499 522C825.725 524.967 820.225 529.467 815.999 535.5C814.447 537.768 813.614 540.268 813.499 543C820.913 573.232 825.246 603.899 826.499 635C827.04 657.539 821.374 678.373 809.499 697.5C815.621 702.226 822.288 705.893 829.499 708.5C829.499 709.5 829.499 710.5 829.499 711.5C828.027 715.919 827.361 720.586 827.499 725.5C826.52 728.625 826.186 731.958 826.499 735.5C815.183 732.343 805.183 726.843 796.499 719C795.499 718.333 794.499 718.333 793.499 719C789.255 723.915 784.422 728.081 778.999 731.5C775.634 749.627 771.634 767.627 766.999 785.5C765.547 793.198 762.547 800.198 757.999 806.5C752.909 809.294 748.076 812.46 743.499 816C721.293 827.269 698.293 836.602 674.499 844C624.366 857.967 573.366 867.3 521.499 872C466.601 868.628 412.601 859.628 359.499 845C329.376 836.524 301.043 824.191 274.499 808C270.241 803.652 267.407 798.486 265.999 792.5C261.676 773.213 257.676 753.88 253.999 734.5C248.25 729.756 242.75 724.589 237.499 719C236.499 718.333 235.499 718.333 234.499 719C231.68 721.575 228.68 723.908 225.499 726C188.307 747.486 150.973 747.819 113.499 727C73.3305 699.163 53.9971 660.663 55.4992 611.5C56.8882 606.731 57.5548 601.731 57.4992 596.5C58.4693 590.817 59.636 585.15 60.9992 579.5C80.9791 524.036 120.479 494.702 179.499 491.5C178.02 485.249 177.02 478.915 176.499 472.5C177.582 444.499 184.749 418.166 197.999 393.5C209.447 373.928 226.447 362.262 248.999 358.5C251.614 349.537 255.614 341.204 260.999 333.5C269.386 322.78 277.386 311.78 284.999 300.5C291.499 293.333 297.999 286.167 304.499 279C331.263 256.442 360.263 237.108 391.499 221C417.982 207.894 445.649 198.061 474.499 191.5C472.983 180.816 477.65 174.316 488.499 172C494.658 171.25 500.658 170.417 506.499 169.5Z" fill="#040404"/>
<path fill-rule="evenodd" clip-rule="evenodd" d="M504.5 191.5C511.655 190.345 518.988 190.178 526.5 191C523.299 193.964 519.465 195.13 515 194.5C510.93 195.021 507.43 194.021 504.5 191.5Z" fill="#EEEEEE"/>
<path fill-rule="evenodd" clip-rule="evenodd" d="M445.5 222.5C444.432 221.566 443.099 221.232 441.5 221.5C445.209 219.431 449.209 218.265 453.5 218C450.968 219.765 448.301 221.265 445.5 222.5Z" fill="#B9B9B9"/>
<path fill-rule="evenodd" clip-rule="evenodd" d="M441.5 221.5C443.099 221.232 444.432 221.566 445.5 222.5C407.789 247.037 375.289 277.371 348 313.5C343.49 319.52 340.324 326.186 338.5 333.5C326.239 336.643 314.239 340.476 302.5 345C297.323 349.864 292.99 355.364 289.5 361.5C282.48 358.439 275.147 356.439 267.5 355.5C277.086 341.08 287.253 327.08 298 313.5C311.313 297.185 326.813 283.352 344.5 272C366.848 256.82 390.181 243.153 414.5 231C423.196 226.935 432.196 223.768 441.5 221.5Z" fill="#FAFAFA"/>
<path fill-rule="evenodd" clip-rule="evenodd" d="M577.5 218.5C594.135 222.552 610.469 228.385 626.5 236C661.523 253.751 693.689 275.584 723 301.5C737.23 318.963 750.73 336.963 763.5 355.5C755.619 355.685 748.286 357.685 741.5 361.5C738.074 355.905 734.074 350.738 729.5 346C717.408 341.414 705.075 337.414 692.5 334C691.736 331.931 691.236 329.764 691 327.5C683.564 314.291 674.897 301.958 665 290.5C639.16 262.132 609.994 238.132 577.5 218.5Z" fill="#FAFAFA"/>
<path fill-rule="evenodd" clip-rule="evenodd" d="M489.5 220.5C490.239 220.369 490.906 220.536 491.5 221C469.69 246.118 454.856 274.951 447 307.5C440.351 311.293 433.184 313.793 425.5 315C420.792 318.533 417.459 323.033 415.5 328.5C398.991 327.301 382.491 327.301 366 328.5C365.167 328.167 364.333 327.833 363.5 327.5C371.384 315.778 380.218 304.778 390 294.5C419.256 264.318 452.422 239.652 489.5 220.5Z" fill="#FAFAFA"/>
<path fill-rule="evenodd" clip-rule="evenodd" d="M478.5 302.5C475.428 302.817 472.428 302.484 469.5 301.5C470.309 299.929 470.643 298.262 470.5 296.5C480.053 269.139 494.72 244.973 514.5 224C515.167 223.333 515.833 223.333 516.5 224C537.903 246.951 553.569 273.451 563.5 303.5C562.667 303.833 561.833 304.167 561 304.5C533.595 300.032 506.095 299.366 478.5 302.5Z" fill="#FBFBFB"/>
<path fill-rule="evenodd" clip-rule="evenodd" d="M539.5 221.5C539.56 220.957 539.893 220.624 540.5 220.5C584.985 243.143 623.485 273.476 656 311.5C660.027 316.694 663.86 322.027 667.5 327.5C667.167 327.833 666.833 328.167 666.5 328.5C649.544 327.681 632.544 327.181 615.5 327C613.593 323.09 610.927 319.756 607.5 317C600.272 314.221 592.939 311.721 585.5 309.5C576.976 276.445 561.642 247.112 539.5 221.5Z" fill="#FBFBFB"/>
<path fill-rule="evenodd" clip-rule="evenodd" d="M470.5 296.5C470.643 298.262 470.309 299.929 469.5 301.5C472.428 302.484 475.428 302.817 478.5 302.5C474.997 304.024 471.33 304.358 467.5 303.5C468.33 300.984 469.33 298.65 470.5 296.5Z" fill="#BFBFBF"/>
<path fill-rule="evenodd" clip-rule="evenodd" d="M451.5 339.5C455.162 339.277 458.495 338.277 461.5 336.5C468.708 334.847 476.042 333.681 483.5 333C503.833 332.333 524.167 332.333 544.5 333C560.335 333.376 575.335 337.042 589.5 344C591.043 345.878 592.876 347.378 595 348.5C598.802 366.655 600.135 384.988 599 403.5C596.925 409.14 594.259 414.474 591 419.5C587.703 422.567 583.869 424.733 579.5 426C569.361 428.968 559.027 430.968 548.5 432C530.491 431.737 512.491 431.904 494.5 432.5C476.758 432.989 459.758 429.822 443.5 423C437.75 417.671 433.916 411.171 432 403.5C430.605 384.969 431.938 366.636 436 348.5C440.517 344.327 445.684 341.327 451.5 339.5Z" fill="#FDFDFD"/>
<path fill-rule="evenodd" clip-rule="evenodd" d="M461.5 336.5C458.495 338.277 455.162 339.277 451.5 339.5C454.505 337.723 457.838 336.723 461.5 336.5Z" fill="#AAAAAA"/>
<path fill-rule="evenodd" clip-rule="evenodd" d="M656.5 350.5C648.291 350.016 640.291 350.683 632.5 352.5C633.808 351.768 635.142 350.934 636.5 350C643.346 349.179 650.013 349.346 656.5 350.5Z" fill="#B0B0B0"/>
<path fill-rule="evenodd" clip-rule="evenodd" d="M393.5 350.5C402.645 351.642 409.145 356.308 413 364.5C411.689 380.787 411.356 397.12 412 413.5C412.454 422.207 415.62 429.707 421.5 436C390.69 446.969 359.023 451.969 326.5 451C316.725 448.795 307.059 446.295 297.5 443.5C296.012 416.743 300.512 391.077 311 366.5C325.581 358.919 341.081 354.252 357.5 352.5C369.438 350.927 381.438 350.26 393.5 350.5Z" fill="#FDFDFD"/>
<path fill-rule="evenodd" clip-rule="evenodd" d="M656.5 350.5C677.982 351.83 698.649 356.663 718.5 365C721.764 370.111 724.264 375.611 726 381.5C728.47 390.043 730.303 398.71 731.5 407.5C732.309 419.482 732.642 431.482 732.5 443.5C721.271 446.606 709.938 449.439 698.5 452C692.167 452.667 685.833 452.667 679.5 452C665.848 449.667 652.181 447.334 638.5 445C628.328 443.211 618.662 440.044 609.5 435.5C615.468 429.444 618.635 422.111 619 413.5C619.675 397.115 619.342 380.781 618 364.5C620.315 357.344 625.148 353.344 632.5 352.5C640.291 350.683 648.291 350.016 656.5 350.5Z" fill="#FDFDFD"/>
<path fill-rule="evenodd" clip-rule="evenodd" d="M393.5 350.5C381.438 350.26 369.438 350.927 357.5 352.5C369.384 349.505 381.384 348.838 393.5 350.5Z" fill="#C5C5C5"/>
<path fill-rule="evenodd" clip-rule="evenodd" d="M755.5 381.5C761.223 380.304 766.89 380.638 772.5 382.5C766.839 382.093 761.172 381.76 755.5 381.5Z" fill="#404040"/>
<path fill-rule="evenodd" clip-rule="evenodd" d="M202.5 468.5C203.229 463.87 203.563 459.203 203.5 454.5C206.187 435.605 212.354 417.938 222 401.5C228.951 392.27 238.118 386.436 249.5 384C258.39 381.799 267.39 381.132 276.5 382C279.316 384.132 280.649 386.965 280.5 390.5C275.399 410.928 274.232 431.594 277 452.5C278.372 460.857 282.539 467.357 289.5 472C278.71 477.872 267.377 482.039 255.5 484.5C238.622 484.189 222.622 480.356 207.5 473C205.382 471.951 203.716 470.451 202.5 468.5Z" fill="#FCFCFC"/>
<path fill-rule="evenodd" clip-rule="evenodd" d="M755.5 381.5C761.172 381.76 766.839 382.093 772.5 382.5C782.75 384.086 792.417 387.586 801.5 393C809.724 402.24 815.891 412.74 820 424.5C823.092 432.272 825.259 440.272 826.5 448.5C826.844 455.205 827.511 461.872 828.5 468.5C822.622 473.275 815.955 476.775 808.5 479C797.301 481.673 785.967 483.507 774.5 484.5C761.851 481.893 749.851 477.393 738.5 471C742.187 468.636 745.854 466.302 749.5 464C752.872 457.626 754.706 450.793 755 443.5C755.667 434.167 755.667 424.833 755 415.5C753.659 407.135 752.159 398.802 750.5 390.5C750.36 386.443 752.026 383.443 755.5 381.5Z" fill="#FCFCFC"/>
<path fill-rule="evenodd" clip-rule="evenodd" d="M731.5 407.5C733.007 414.438 733.673 421.604 733.5 429C733.499 434.012 733.166 438.845 732.5 443.5C732.642 431.482 732.309 419.482 731.5 407.5Z" fill="#CACACA"/>
<path fill-rule="evenodd" clip-rule="evenodd" d="M826.5 448.5C828.928 455.047 829.595 461.714 828.5 468.5C827.511 461.872 826.844 455.205 826.5 448.5Z" fill="#B5B5B5"/>
<path fill-rule="evenodd" clip-rule="evenodd" d="M464.5 460.5C466.515 461.924 468.848 462.59 471.5 462.5C485.836 465.865 500.503 467.198 515.5 466.5C533.436 466.846 551.102 464.846 568.5 460.5C571.152 460.59 573.485 459.924 575.5 458.5C577.905 458.134 580.238 457.467 582.5 456.5C588.561 459.862 594.895 462.696 601.5 465C628.583 472.137 656.083 476.97 684 479.5C688.962 479.652 693.796 478.986 698.5 477.5C701.353 481.513 705.019 484.68 709.5 487C730.141 498.602 751.807 507.769 774.5 514.5C779.959 524.745 784.292 535.412 787.5 546.5C787.723 550.162 788.723 553.495 790.5 556.5C793.01 564.199 794.677 572.199 795.5 580.5C787.909 578.852 780.242 578.352 772.5 579C766.975 581.919 765.142 586.419 767 592.5C768.5 595.333 770.667 597.5 773.5 599C781.891 600.343 790.225 602.01 798.5 604C799.337 605.011 799.67 606.178 799.5 607.5C799.5 609.167 799.5 610.833 799.5 612.5C795.958 612.187 792.625 612.521 789.5 613.5C781.265 616.511 779.431 621.845 784 629.5C788.976 633.883 794.809 636.216 801.5 636.5C802.224 652.163 798.724 666.83 791 680.5C787.484 686.878 783.484 692.878 779 698.5C773 703.833 767 709.167 761 714.5C754.828 736.689 749.161 759.022 744 781.5C742.783 784.994 741.283 788.327 739.5 791.5C731.274 796.78 722.607 801.28 713.5 805C676.407 820.286 638.074 831.286 598.5 838C576.529 841.496 554.529 844.663 532.5 847.5C524.517 848.166 516.517 848.499 508.5 848.5C447.731 844.114 388.731 831.614 331.5 811C317.651 805.742 304.318 799.409 291.5 792C289.279 787.339 287.445 782.506 286 777.5C281.245 754.812 275.412 732.479 268.5 710.5C266.91 708.179 264.577 707.179 261.5 707.5C258.628 706.474 256.128 704.808 254 702.5C243.447 689.063 235.781 674.063 231 657.5C230.003 650.533 229.503 643.533 229.5 636.5C235.109 635.532 240.442 633.698 245.5 631C251.174 625.11 250.841 619.777 244.5 615C239.909 613.947 235.242 613.114 230.5 612.5C231.23 609.891 231.73 607.224 232 604.5C240.686 601.875 249.519 599.708 258.5 598C260.687 596.975 262.354 595.475 263.5 593.5C264.641 590.36 264.808 587.027 264 583.5C263.292 582.619 262.458 581.953 261.5 581.5C258.108 579.111 254.275 578.111 250 578.5C245.093 578.716 240.259 579.382 235.5 580.5C238.525 556.59 245.859 534.09 257.5 513C279.75 506.692 301.083 498.025 321.5 487C325.955 484.709 329.622 481.542 332.5 477.5C340.375 479.485 348.375 479.985 356.5 479C381.413 475.151 406.08 470.151 430.5 464C436.55 461.889 442.383 459.389 448 456.5C453.446 458.155 458.946 459.488 464.5 460.5Z" fill="#FCFCFC"/>
<path fill-rule="evenodd" clip-rule="evenodd" d="M575.5 458.5C573.485 459.924 571.152 460.59 568.5 460.5C570.515 459.076 572.848 458.41 575.5 458.5Z" fill="#8C8C8C"/>
<path fill-rule="evenodd" clip-rule="evenodd" d="M203.502 454.5C203.565 459.203 203.231 463.87 202.502 468.5C201.505 463.787 201.839 459.12 203.502 454.5Z" fill="#C1C1C1"/>
<path fill-rule="evenodd" clip-rule="evenodd" d="M464.5 460.5C467.152 460.41 469.485 461.076 471.5 462.5C468.848 462.59 466.515 461.924 464.5 460.5Z" fill="#484848"/>
<path fill-rule="evenodd" clip-rule="evenodd" d="M881.5 465.5C890.433 468.648 899.1 472.481 907.5 477C908.059 477.725 908.392 478.558 908.5 479.5C898.079 499.352 885.912 518.019 872 535.5C866.653 531.986 861.653 527.986 857 523.5C856.333 520.833 856.333 518.167 857 515.5C862.749 505.332 867.416 494.665 871 483.5C874.259 477.308 877.759 471.308 881.5 465.5Z" fill="#060606"/>
<path fill-rule="evenodd" clip-rule="evenodd" d="M934.499 476.5C945.75 484.59 954.75 494.757 961.499 507C946.851 517.641 932.185 528.308 917.499 539C912.499 544 907.499 549 902.499 554C899.462 555.85 896.462 555.85 893.499 554C890.365 550.502 886.865 547.335 882.999 544.5C882.479 542.711 882.812 541.044 883.999 539.5C891.332 528.833 898.666 518.167 905.999 507.5C914.969 496.696 924.469 486.363 934.499 476.5Z" fill="#050505"/>
<path fill-rule="evenodd" clip-rule="evenodd" d="M446.5 518.5C439.806 512.875 433.473 513.209 427.5 519.5C431.483 512.27 437.15 510.77 444.5 515C445.823 515.816 446.489 516.983 446.5 518.5Z" fill="#3B3B3B"/>
<path fill-rule="evenodd" clip-rule="evenodd" d="M323.499 515.5C328.268 516.889 333.268 517.556 338.499 517.5C367.116 520.859 395.783 523.859 424.499 526.5C425.208 527.404 426.208 527.737 427.499 527.5C427.499 525.167 427.499 522.833 427.499 520.5C427.499 520.167 427.499 519.833 427.499 519.5C433.472 513.209 439.805 512.875 446.499 518.5C447.926 520.148 448.759 522.148 448.999 524.5C449.498 528.486 449.665 532.486 449.499 536.5C449.499 539.167 449.499 541.833 449.499 544.5C445.398 551.603 439.565 553.269 431.999 549.5C430.364 549.878 428.864 550.544 427.499 551.5C434.343 556.089 441.009 560.922 447.499 566C455.488 573.407 456.488 581.573 450.499 590.5C449.093 590.973 448.426 591.973 448.499 593.5C447.499 594.167 446.499 594.833 445.499 595.5C442.406 596.213 439.406 597.213 436.499 598.5C431.112 597.97 425.779 597.97 420.499 598.5C407.754 613.211 391.754 619.544 372.499 617.5C370.484 616.076 368.151 615.41 365.499 615.5C356.282 612.224 347.949 607.39 340.499 601C333.841 600.5 327.174 600.334 320.499 600.5C320.35 601.552 320.516 602.552 320.999 603.5C330.56 612.864 341.727 619.53 354.499 623.5C357.948 624.97 361.615 626.136 365.499 627C373.011 627.822 380.344 627.655 387.499 626.5C398.426 624.357 408.759 620.523 418.499 615C424.103 609.551 430.103 604.717 436.499 600.5C443.678 599.111 450.345 600.445 456.499 604.5C457.996 606.29 458.663 608.456 458.499 611C458.652 614.159 457.818 616.992 455.999 619.5C428.643 650.751 394.477 662.584 353.499 655C331.119 649.23 312.286 637.73 296.999 620.5C293.994 616.494 291.494 612.16 289.499 607.5C284.867 606.672 280.201 606.172 275.499 606C273.676 605.003 272.009 603.836 270.499 602.5C268.886 597.993 268.22 593.327 268.499 588.5C270.335 585.832 272.668 583.666 275.499 582C282.117 580.508 288.784 579.341 295.499 578.5C299.488 578.884 303.154 578.217 306.499 576.5C329.767 573.736 353.101 571.736 376.499 570.5C385.838 570.666 395.172 570.5 404.499 570C403.955 569.283 403.288 568.783 402.499 568.5C398.269 565.047 395.269 560.713 393.499 555.5C393.499 553.5 393.499 551.5 393.499 549.5C391.832 549.5 390.166 549.5 388.499 549.5C385.166 549.167 381.832 548.833 378.499 548.5C373.749 546.969 368.749 546.302 363.499 546.5C352.167 545.5 340.833 544.5 329.499 543.5C325.683 542.518 321.683 541.851 317.499 541.5C308.998 540.499 300.998 537.999 293.499 534C288.846 530.212 287.346 525.378 288.999 519.5C290.166 517 291.999 515.167 294.499 514C304.195 513.78 313.862 514.28 323.499 515.5Z" fill="#030303"/>
<path fill-rule="evenodd" clip-rule="evenodd" d="M604.5 527.5C603.087 524.781 602.42 521.781 602.5 518.5C599.302 517.654 596.135 516.654 593 515.5C590.1 516.369 587.267 517.369 584.5 518.5C586.588 512.873 590.588 511.039 596.5 513C603.193 515.549 605.86 520.383 604.5 527.5Z" fill="#2B2B2B"/>
<path fill-rule="evenodd" clip-rule="evenodd" d="M640.5 549.5C639.5 549.5 638.5 549.5 637.5 549.5C637.5 551.5 637.5 553.5 637.5 555.5C635.649 561.697 631.983 566.53 626.5 570C667.768 570.745 708.768 574.411 749.5 581C752.865 581.505 755.865 582.672 758.5 584.5C758.685 586.196 759.519 587.529 761 588.5C761.167 590.167 761.333 591.833 761.5 593.5C760.954 596.566 760.288 599.566 759.5 602.5C759.167 603.167 758.833 603.833 758.5 604.5C752.528 605.547 746.861 606.88 741.5 608.5C729.109 629.038 711.443 643.205 688.5 651C645.195 665.382 608.028 655.882 577 622.5C576.536 621.906 576.369 621.239 576.5 620.5C572.723 609.386 576.39 602.053 587.5 598.5C587.463 595.298 585.797 593.632 582.5 593.5C574.008 583.417 574.674 573.917 584.5 565C590.382 560.276 596.382 555.776 602.5 551.5C599.923 549.244 597.257 549.077 594.5 551C588.049 553.178 583.882 551.011 582 544.5C581.333 537.833 581.333 531.167 582 524.5C582.24 522.148 583.073 520.148 584.5 518.5C587.267 517.369 590.1 516.369 593 515.5C596.135 516.654 599.302 517.654 602.5 518.5C602.42 521.781 603.087 524.781 604.5 527.5C643.067 522.673 681.734 518.173 720.5 514C726.755 512.873 732.755 513.54 738.5 516C742.328 519.264 743.495 523.431 742 528.5C739.08 533.22 734.913 536.387 729.5 538C723.24 539.655 716.907 540.988 710.5 542C687.125 544.245 663.791 546.745 640.5 549.5Z" fill="#030303"/>
<path fill-rule="evenodd" clip-rule="evenodd" d="M323.5 515.5C328.731 515.444 333.731 516.111 338.5 517.5C333.269 517.556 328.269 516.889 323.5 515.5Z" fill="#9E9E9E"/>
<path fill-rule="evenodd" clip-rule="evenodd" d="M572.5 520.5C569.167 520.5 565.833 520.5 562.5 520.5C562.611 519.883 562.944 519.383 563.5 519C566.167 518.333 568.833 518.333 571.5 519C572.056 519.383 572.389 519.883 572.5 520.5Z" fill="#353535"/>
<path fill-rule="evenodd" clip-rule="evenodd" d="M182.5 520.5C175.82 520.612 169.153 520.946 162.5 521.5C169.109 519.529 175.776 519.196 182.5 520.5Z" fill="#9B9B9B"/>
<path fill-rule="evenodd" clip-rule="evenodd" d="M472.5 556.5C468.236 560.111 463.236 561.445 457.5 560.5C454.767 557.925 452.767 554.925 451.5 551.5C451.5 547.167 451.5 542.833 451.5 538.5C452.208 534.215 452.708 529.882 453 525.5C456.877 518.105 462.377 516.605 469.5 521C472.473 523.448 473.973 526.614 474 530.5C475.039 539.328 474.539 547.995 472.5 556.5Z" fill="#0A0A0A"/>
<path fill-rule="evenodd" clip-rule="evenodd" d="M562.499 520.5C565.832 520.5 569.166 520.5 572.499 520.5C575.166 521.167 576.832 522.833 577.499 525.5C578.106 534.487 578.439 543.487 578.499 552.5C578.736 553.791 578.403 554.791 577.499 555.5C572.157 558.759 566.49 559.259 560.499 557C560.025 555.271 559.025 554.105 557.499 553.5C556.355 544.311 556.522 534.977 557.999 525.5C558.995 523.34 560.495 521.673 562.499 520.5Z" fill="#040404"/>
<path fill-rule="evenodd" clip-rule="evenodd" d="M182.501 520.5C195.88 520.606 206.713 525.939 215.001 536.5C215.863 538.087 216.53 539.754 217.001 541.5C213.247 560.687 209.914 580.021 207.001 599.5C203.098 623.317 203.765 646.984 209.001 670.5C212.501 679.666 216.668 688.5 221.501 697C205.498 709.222 187.331 715.056 167.001 714.5C136.274 712.139 112.941 697.806 97.001 671.5C82.501 644.44 79.501 616.107 88.001 586.5C100.593 550.738 125.426 529.072 162.501 521.5C169.154 520.946 175.821 520.612 182.501 520.5Z" fill="#FBFBFB"/>
<path fill-rule="evenodd" clip-rule="evenodd" d="M427.5 520.5C427.5 522.833 427.5 525.167 427.5 527.5C426.209 527.737 425.209 527.404 424.5 526.5C426.06 524.844 427.06 522.844 427.5 520.5Z" fill="#A2A2A2"/>
<path fill-rule="evenodd" clip-rule="evenodd" d="M159.5 530.5C156.43 530.368 153.43 530.701 150.5 531.5C150.611 530.883 150.944 530.383 151.5 530C154.367 529.199 157.034 529.366 159.5 530.5Z" fill="#4C4C4C"/>
<path fill-rule="evenodd" clip-rule="evenodd" d="M159.5 530.5C170.337 534.838 180.004 541.004 188.5 549C195.773 556.085 201.107 564.252 204.5 573.5C204.333 575.167 204.167 576.833 204 578.5C202.471 579.729 201.304 581.229 200.5 583C191.323 587.299 181.99 591.299 172.5 595C155.907 605.949 155.24 617.949 170.5 631C175.311 633.725 180.477 635.558 186 636.5C191.904 633.205 196.904 634.205 201 639.5C202.111 644.611 201.111 649.278 198 653.5C190.368 666.802 180.868 678.636 169.5 689C167.299 689.825 165.466 689.325 164 687.5C163.333 684.5 163.333 681.5 164 678.5C167.36 669.447 171.526 660.78 176.5 652.5C150.858 643.879 140.024 626.212 144 599.5C151.405 583.033 163.905 572.533 181.5 568C173.186 558.67 163.519 551.004 152.5 545C150.858 543.871 149.858 542.371 149.5 540.5C149.367 537.43 149.701 534.43 150.5 531.5C153.429 530.701 156.43 530.368 159.5 530.5Z" fill="#060606"/>
<path fill-rule="evenodd" clip-rule="evenodd" d="M973.5 596.5C974.327 609.482 974.661 622.482 974.5 635.5C973.901 640.861 973.067 646.194 972 651.5C971.424 654.541 970.258 657.208 968.5 659.5C960.305 654.906 952.305 650.073 944.5 645C952.639 609.5 944.972 578 921.5 550.5C928.619 543.968 936.285 538.468 944.5 534C960.226 551.931 969.892 572.764 973.5 596.5Z" fill="#050505"/>
<path fill-rule="evenodd" clip-rule="evenodd" d="M150.501 531.5C149.702 534.43 149.369 537.43 149.501 540.5C148.008 539.688 147.341 538.355 147.501 536.5C147.287 534.058 148.287 532.392 150.501 531.5Z" fill="#454545"/>
<path fill-rule="evenodd" clip-rule="evenodd" d="M857.5 650.5C856.022 650.238 854.689 650.571 853.5 651.5C853.624 652.107 853.957 652.44 854.5 652.5C859.446 660.644 863.446 669.311 866.5 678.5C863.581 683.396 859.581 684.563 854.5 682C844.737 671.642 836.57 660.142 830 647.5C828.524 635.974 833.191 632.307 844 636.5C857.307 635.513 866.307 628.846 871 616.5C871.762 611 870.428 606 867 601.5C863.588 598.877 860.088 596.377 856.5 594C847.986 591.121 839.652 587.788 831.5 584C826.477 579.318 825.311 573.818 828 567.5C834.742 556.09 843.575 546.59 854.5 539C855.833 538.333 857.167 538.333 858.5 539C861.924 541.38 864.924 544.213 867.5 547.5C866.667 549.167 865.833 550.833 865 552.5C859.263 557.114 854.097 562.281 849.5 568C866.886 572.722 879.386 583.222 887 599.5C891.028 618.08 885.528 633.246 870.5 645C866.544 647.708 862.211 649.541 857.5 650.5Z" fill="#060606"/>
<path fill-rule="evenodd" clip-rule="evenodd" d="M449.5 536.5C450.167 537.167 450.833 537.833 451.5 538.5C451.5 542.833 451.5 547.167 451.5 551.5C450.833 549.167 450.167 546.833 449.5 544.5C449.5 541.833 449.5 539.167 449.5 536.5Z" fill="#BEBEBE"/>
<path fill-rule="evenodd" clip-rule="evenodd" d="M577.5 525.5C579.498 534.456 579.831 543.456 578.5 552.5C578.44 543.487 578.107 534.487 577.5 525.5Z" fill="#363636"/>
<path fill-rule="evenodd" clip-rule="evenodd" d="M317.5 541.5C321.684 541.851 325.684 542.518 329.5 543.5C326.15 543.665 322.817 543.498 319.5 543C318.584 542.722 317.918 542.222 317.5 541.5Z" fill="#C0C0C0"/>
<path fill-rule="evenodd" clip-rule="evenodd" d="M363.5 546.5C368.75 546.302 373.75 546.969 378.5 548.5C373.269 548.556 368.269 547.889 363.5 546.5Z" fill="#4F4F4F"/>
<path fill-rule="evenodd" clip-rule="evenodd" d="M388.5 549.5C390.167 549.5 391.833 549.5 393.5 549.5C393.5 551.5 393.5 553.5 393.5 555.5C392.549 554.081 392.216 552.415 392.5 550.5C390.901 550.768 389.568 550.434 388.5 549.5Z" fill="#8E8E8E"/>
<path fill-rule="evenodd" clip-rule="evenodd" d="M787.5 546.5C789.277 549.505 790.277 552.838 790.5 556.5C788.723 553.495 787.723 550.162 787.5 546.5Z" fill="#A9A9A9"/>
<path fill-rule="evenodd" clip-rule="evenodd" d="M640.5 549.5C639.158 551.361 638.158 553.361 637.5 555.5C637.5 553.5 637.5 551.5 637.5 549.5C638.5 549.5 639.5 549.5 640.5 549.5Z" fill="#6D6D6D"/>
<path fill-rule="evenodd" clip-rule="evenodd" d="M451.501 551.5C452.768 554.925 454.768 557.925 457.501 560.5C453.278 559.069 451.278 556.069 451.501 551.5Z" fill="#B1B1B1"/>
<path fill-rule="evenodd" clip-rule="evenodd" d="M557.5 553.5C559.026 554.105 560.026 555.271 560.5 557C566.491 559.259 572.158 558.759 577.5 555.5C577.586 556.496 577.252 557.329 576.5 558C572.278 561.111 567.611 562.111 562.5 561C559.796 559.14 558.129 556.64 557.5 553.5Z" fill="#262626"/>
<path fill-rule="evenodd" clip-rule="evenodd" d="M472.5 556.5C472.084 558.752 470.751 560.252 468.5 561C464.642 561.81 460.976 561.643 457.5 560.5C463.236 561.445 468.236 560.111 472.5 556.5Z" fill="#6C6C6C"/>
<path fill-rule="evenodd" clip-rule="evenodd" d="M402.5 568.5C403.289 568.783 403.956 569.283 404.5 570C395.173 570.5 385.839 570.666 376.5 570.5C385.167 569.833 393.833 569.167 402.5 568.5Z" fill="#C7C7C7"/>
<path fill-rule="evenodd" clip-rule="evenodd" d="M306.5 576.5C303.155 578.217 299.489 578.884 295.5 578.5C298.974 577.475 302.64 576.808 306.5 576.5Z" fill="#474747"/>
<path fill-rule="evenodd" clip-rule="evenodd" d="M261.5 581.5C262.458 581.953 263.292 582.619 264 583.5C264.808 587.027 264.641 590.36 263.5 593.5C263.919 589.227 263.252 585.227 261.5 581.5Z" fill="#4D4D4D"/>
<path fill-rule="evenodd" clip-rule="evenodd" d="M268.498 588.5C268.219 593.327 268.885 597.993 270.498 602.5C269.032 601.653 268.198 600.32 267.998 598.5C267.19 594.973 267.357 591.64 268.498 588.5Z" fill="#737373"/>
<path fill-rule="evenodd" clip-rule="evenodd" d="M450.501 590.5C450.574 592.027 449.907 593.027 448.501 593.5C448.428 591.973 449.095 590.973 450.501 590.5Z" fill="#898989"/>
<path fill-rule="evenodd" clip-rule="evenodd" d="M758.5 584.5C763.189 587.988 764.689 592.655 763 598.5C761.595 599.731 760.429 601.064 759.5 602.5C760.288 599.566 760.954 596.566 761.5 593.5C761.333 591.833 761.167 590.167 761 588.5C759.519 587.529 758.685 586.196 758.5 584.5Z" fill="#393939"/>
<path fill-rule="evenodd" clip-rule="evenodd" d="M436.498 598.5C436.498 599.167 436.498 599.833 436.498 600.5C430.102 604.717 424.102 609.551 418.498 615C408.758 620.523 398.425 624.357 387.498 626.5C376.317 627.112 365.317 626.112 354.498 623.5C341.726 619.53 330.559 612.864 320.998 603.5C320.515 602.552 320.349 601.552 320.498 600.5C327.173 600.334 333.84 600.5 340.498 601C347.948 607.39 356.281 612.224 365.498 615.5C367.513 616.924 369.846 617.59 372.498 617.5C391.753 619.544 407.753 613.211 420.498 598.5C425.778 597.97 431.111 597.97 436.498 598.5Z" fill="#F4F4F4"/>
<path fill-rule="evenodd" clip-rule="evenodd" d="M445.5 595.5C445.389 596.117 445.056 596.617 444.5 597C449.772 597.786 453.772 600.286 456.5 604.5C450.346 600.445 443.679 599.111 436.5 600.5C436.5 599.833 436.5 599.167 436.5 598.5C439.407 597.213 442.407 596.213 445.5 595.5Z" fill="#1D1D1D"/>
<path fill-rule="evenodd" clip-rule="evenodd" d="M602.5 597.5C605.247 597.187 607.914 597.52 610.5 598.5C626.454 617.572 646.121 622.739 669.5 614C677.03 610.459 684.03 606.126 690.5 601C697.215 600.289 703.882 600.622 710.5 602C682.418 629.603 650.751 634.603 615.5 617C608.54 611.708 601.873 606.042 595.5 600C597.927 599.098 600.26 598.264 602.5 597.5Z" fill="#F3F3F3"/>
<path fill-rule="evenodd" clip-rule="evenodd" d="M582.499 593.5C585.796 593.632 587.462 595.298 587.499 598.5C576.389 602.053 572.722 609.386 576.499 620.5C568.69 608.1 572.023 600.266 586.499 597C584.906 596.051 583.573 594.885 582.499 593.5Z" fill="#262626"/>
<path fill-rule="evenodd" clip-rule="evenodd" d="M758.5 604.5C757.653 605.966 756.32 606.8 754.5 607C750.083 607.228 745.75 607.728 741.5 608.5C746.861 606.88 752.528 605.547 758.5 604.5Z" fill="#A4A4A4"/>
<path fill-rule="evenodd" clip-rule="evenodd" d="M499.5 655.5C496.468 655.505 493.468 655.838 490.5 656.5C488.307 656.281 486.307 655.615 484.5 654.5C482.672 651.865 481.505 648.865 481 645.5C479.541 635.703 478.374 625.87 477.5 616C479.438 605.767 485.104 603.1 494.5 608C496.617 609.731 498.117 611.898 499 614.5C501.98 626.34 503.314 638.34 503 650.5C501.824 652.196 500.657 653.862 499.5 655.5Z" fill="#090909"/>
<path fill-rule="evenodd" clip-rule="evenodd" d="M545.498 655.5C542.466 655.505 539.466 655.838 536.498 656.5C534.151 655.474 531.818 654.474 529.498 653.5C528.087 650.53 527.42 647.364 527.498 644C528.439 634.081 529.939 624.248 531.998 614.5C536.992 604.266 543.658 602.932 551.998 610.5C553.02 612.702 553.52 615.035 553.498 617.5C552.528 629.318 550.695 640.985 547.998 652.5C547.146 653.571 546.313 654.571 545.498 655.5Z" fill="#080808"/>
<path fill-rule="evenodd" clip-rule="evenodd" d="M57.5 596.5C57.5556 601.731 56.889 606.731 55.5 611.5C55.5 609.167 55.5 606.833 55.5 604.5C56.0784 601.72 56.7451 599.053 57.5 596.5Z" fill="#3D3D3D"/>
<path fill-rule="evenodd" clip-rule="evenodd" d="M799.5 607.5C800.461 609.265 800.795 611.265 800.5 613.5C796.833 613.5 793.167 613.5 789.5 613.5C792.625 612.521 795.958 612.187 799.5 612.5C799.5 610.833 799.5 609.167 799.5 607.5Z" fill="#C2C2C2"/>
<path fill-rule="evenodd" clip-rule="evenodd" d="M365.5 615.5C368.152 615.41 370.485 616.076 372.5 617.5C369.848 617.59 367.515 616.924 365.5 615.5Z" fill="#505050"/>
<path fill-rule="evenodd" clip-rule="evenodd" d="M973.5 596.5C975.022 603.939 975.689 611.606 975.5 619.5C975.499 625.011 975.166 630.344 974.5 635.5C974.661 622.482 974.327 609.482 973.5 596.5Z" fill="#2D2D2D"/>
<path fill-rule="evenodd" clip-rule="evenodd" d="M354.5 623.5C365.319 626.112 376.319 627.112 387.5 626.5C380.345 627.655 373.012 627.822 365.5 627C361.616 626.136 357.949 624.97 354.5 623.5Z" fill="#CBCBCB"/>
<path fill-rule="evenodd" clip-rule="evenodd" d="M928.5 648.5C933.951 649.596 938.951 651.763 943.5 655C959.212 666.373 974.046 678.873 988 692.5C990.182 696.01 992.349 699.51 994.5 703C982.056 718.449 969.222 733.615 956 748.5C950.855 751.911 945.355 752.411 939.5 750C935.084 747.588 931.251 744.422 928 740.5C921.084 730.337 914.417 720.003 908 709.5C904.168 702.838 901.168 695.838 899 688.5C898.333 686.5 898.333 684.5 899 682.5C908.296 670.704 918.129 659.371 928.5 648.5Z" fill="#040404"/>
<path fill-rule="evenodd" clip-rule="evenodd" d="M857.5 650.5C856.5 651.167 855.5 651.833 854.5 652.5C853.957 652.44 853.624 652.107 853.5 651.5C854.689 650.571 856.022 650.238 857.5 650.5Z" fill="#6D6D6D"/>
<path fill-rule="evenodd" clip-rule="evenodd" d="M529.5 653.5C531.82 654.474 534.153 655.474 536.5 656.5C539.468 655.838 542.468 655.505 545.5 655.5C539.434 660.075 534.101 659.409 529.5 653.5Z" fill="#2E2E2E"/>
<path fill-rule="evenodd" clip-rule="evenodd" d="M484.5 654.5C486.307 655.615 488.307 656.281 490.5 656.5C493.468 655.838 496.468 655.505 499.5 655.5C496.022 658.277 492.022 659.11 487.5 658C486.29 656.961 485.29 655.794 484.5 654.5Z" fill="#2E2E2E"/>
<path fill-rule="evenodd" clip-rule="evenodd" d="M919.502 672.5C934.258 681.405 947.758 692.072 960.002 704.5C960.669 705.5 960.669 706.5 960.002 707.5C955.301 711.866 950.968 716.533 947.002 721.5C937.182 707.205 927.848 692.538 919.002 677.5C918.362 675.735 918.529 674.068 919.502 672.5Z" fill="#F9F9F9"/>
<path fill-rule="evenodd" clip-rule="evenodd" d="M308.499 680.5C313.192 680.267 317.359 681.601 320.999 684.5C321.307 683.692 321.807 683.025 322.499 682.5C324.957 686.796 325.957 691.463 325.499 696.5C318.054 702.843 311.388 710.01 305.499 718C297.607 722.368 291.774 720.535 287.999 712.5C287.261 708.739 287.594 705.072 288.999 701.5C293.702 692.704 300.202 685.704 308.499 680.5Z" fill="#050505"/>
<path fill-rule="evenodd" clip-rule="evenodd" d="M325.5 682.5C326.162 686.466 326.495 690.466 326.5 694.5C326.672 695.492 326.338 696.158 325.5 696.5C325.958 691.463 324.958 686.796 322.5 682.5C321.808 683.025 321.308 683.692 321 684.5C317.36 681.601 313.193 680.267 308.5 680.5C308.611 679.883 308.944 679.383 309.5 679C315.549 677.52 320.882 678.686 325.5 682.5Z" fill="#262626"/>
<path fill-rule="evenodd" clip-rule="evenodd" d="M704.498 695.5C704.498 694.833 704.498 694.167 704.498 693.5C704.335 691.143 704.501 688.81 704.998 686.5C707.428 684.578 709.261 682.245 710.498 679.5C713.406 678.431 716.406 678.264 719.498 679C730.14 684.432 737.973 692.598 742.998 703.5C745.048 715.783 739.882 721.283 727.498 720C720.049 711.715 712.382 703.548 704.498 695.5Z" fill="#080808"/>
<path fill-rule="evenodd" clip-rule="evenodd" d="M710.501 679.5C709.264 682.245 707.431 684.578 705.001 686.5C704.504 688.81 704.338 691.143 704.501 693.5C703.528 691.052 703.195 688.385 703.501 685.5C704.6 682.068 706.934 680.068 710.501 679.5Z" fill="#4F4F4F"/>
<path fill-rule="evenodd" clip-rule="evenodd" d="M325.5 682.5C328.747 686.355 329.08 690.355 326.5 694.5C326.495 690.466 326.162 686.466 325.5 682.5Z" fill="#6F6F6F"/>
<path fill-rule="evenodd" clip-rule="evenodd" d="M703.5 685.5C703.194 688.385 703.527 691.052 704.5 693.5C704.5 694.167 704.5 694.833 704.5 695.5C703.883 695.389 703.383 695.056 703 694.5C702.195 691.304 702.362 688.304 703.5 685.5Z" fill="#A7A7A7"/>
<path fill-rule="evenodd" clip-rule="evenodd" d="M487.5 690.5C470.492 690.5 453.492 690.834 436.5 691.5C446.626 690.016 456.959 689.349 467.5 689.5C474.342 689.5 481.009 689.834 487.5 690.5Z" fill="#292929"/>
<path fill-rule="evenodd" clip-rule="evenodd" d="M647.499 701.5C649.514 702.924 651.847 703.59 654.499 703.5C672.294 708.887 689.627 715.721 706.499 724C717.221 728.723 725.388 736.223 730.999 746.5C733.347 756.788 730.514 765.288 722.499 772C710.656 778.464 697.989 782.464 684.499 784C646.732 785.409 609.066 784.076 571.499 780C553.342 779.138 535.176 778.638 516.999 778.5C470.141 779.972 423.307 781.972 376.499 784.5C360.355 785.113 344.355 783.947 328.499 781C318.561 778.617 310.061 773.783 302.999 766.5C298.022 757.234 298.355 748.234 303.999 739.5C315.088 728.699 327.921 720.532 342.499 715C346.743 713.197 351.077 711.697 355.499 710.5C361.165 709.61 366.499 707.943 371.499 705.5C383.886 701.236 396.553 697.903 409.499 695.5C418.111 695.119 426.444 693.786 434.499 691.5C435.166 691.5 435.832 691.5 436.499 691.5C453.491 690.834 470.491 690.5 487.499 690.5C509.17 690.492 530.837 690.159 552.499 689.5C584.762 688.991 616.428 692.991 647.499 701.5Z" fill="#030303"/>
<path fill-rule="evenodd" clip-rule="evenodd" d="M876.499 690.5C880.845 690.334 885.178 690.501 889.499 691C892.045 694.59 894.212 698.423 895.999 702.5C903.4 726.705 910.4 751.039 916.999 775.5C917.666 779.5 917.666 783.5 916.999 787.5C897.074 794.294 876.907 800.294 856.499 805.5C848.696 800.234 844.196 792.901 842.999 783.5C838.262 754.799 838.428 726.133 843.499 697.5C854.778 695.926 865.778 693.593 876.499 690.5Z" fill="#040404"/>
<path fill-rule="evenodd" clip-rule="evenodd" d="M434.5 691.5C426.445 693.786 418.112 695.119 409.5 695.5C417.555 693.214 425.888 691.881 434.5 691.5Z" fill="#2D2D2D"/>
<path fill-rule="evenodd" clip-rule="evenodd" d="M647.5 701.5C650.152 701.41 652.485 702.076 654.5 703.5C651.848 703.59 649.515 702.924 647.5 701.5Z" fill="#ABABAB"/>
<path fill-rule="evenodd" clip-rule="evenodd" d="M261.5 707.5C264.577 707.179 266.91 708.179 268.5 710.5C266.013 709.677 263.679 708.677 261.5 707.5Z" fill="#A3A3A3"/>
<path fill-rule="evenodd" clip-rule="evenodd" d="M371.5 705.5C366.5 707.943 361.166 709.61 355.5 710.5C360.5 708.057 365.834 706.39 371.5 705.5Z" fill="#363636"/>
<path fill-rule="evenodd" clip-rule="evenodd" d="M499.5 716.5C499.5 716.833 499.5 717.167 499.5 717.5C491.833 717.5 484.167 717.5 476.5 717.5C476.737 718.791 476.404 719.791 475.5 720.5C475.5 719.167 475.5 717.833 475.5 716.5C483.5 716.5 491.5 716.5 499.5 716.5Z" fill="#8B8B8B"/>
<path fill-rule="evenodd" clip-rule="evenodd" d="M499.5 717.5C499.5 717.167 499.5 716.833 499.5 716.5C518.53 715.846 537.197 716.513 555.5 718.5C536.91 717.514 518.243 717.18 499.5 717.5Z" fill="#999999"/>
<path fill-rule="evenodd" clip-rule="evenodd" d="M499.5 717.5C518.243 717.18 536.91 717.514 555.5 718.5C555.973 729.329 554.973 739.996 552.5 750.5C551.596 751.209 551.263 752.209 551.5 753.5C546.167 753.5 540.833 753.5 535.5 753.5C516.49 753.405 497.49 753.738 478.5 754.5C476.677 743.247 475.677 731.913 475.5 720.5C476.404 719.791 476.737 718.791 476.5 717.5C484.167 717.5 491.833 717.5 499.5 717.5Z" fill="#FCFCFC"/>
<path fill-rule="evenodd" clip-rule="evenodd" d="M443.5 717.5C439.081 718.972 434.414 719.638 429.5 719.5C433.919 718.028 438.586 717.362 443.5 717.5Z" fill="#A6A6A6"/>
<path fill-rule="evenodd" clip-rule="evenodd" d="M443.499 717.5C446.832 717.5 450.166 717.5 453.499 717.5C453.044 730.297 454.044 742.964 456.499 755.5C447.812 755.978 439.145 756.644 430.499 757.5C427.832 757.5 425.166 757.5 422.499 757.5C422.814 753.629 422.481 749.962 421.499 746.5C420.796 737.851 420.463 729.185 420.499 720.5C423.454 719.841 426.454 719.508 429.499 719.5C434.413 719.638 439.08 718.972 443.499 717.5Z" fill="#FBFBFB"/>
<path fill-rule="evenodd" clip-rule="evenodd" d="M604.5 720.5C605.919 721.451 607.585 721.784 609.5 721.5C609.5 728.5 609.5 735.5 609.5 742.5C609.002 747.152 608.669 751.819 608.5 756.5C602.082 756.602 595.415 756.602 588.5 756.5C583.833 756.5 579.167 756.5 574.5 756.5C577.122 743.649 578.122 730.649 577.5 717.5C586.778 717.272 595.778 718.272 604.5 720.5Z" fill="#FAFAFA"/>
<path fill-rule="evenodd" clip-rule="evenodd" d="M869.498 716.5C868.831 718.167 868.165 719.833 867.498 721.5C867.334 718.813 867.501 716.146 867.998 713.5C869.037 714.244 869.537 715.244 869.498 716.5Z" fill="#626262"/>
<path fill-rule="evenodd" clip-rule="evenodd" d="M869.502 716.5C874.215 736.687 879.548 756.687 885.502 776.5C880.565 777.985 875.565 779.318 870.502 780.5C866.57 761.008 865.57 741.341 867.502 721.5C868.169 719.833 868.835 718.167 869.502 716.5Z" fill="#F3F3F3"/>
<path fill-rule="evenodd" clip-rule="evenodd" d="M829.498 711.5C829.769 716.434 829.102 721.1 827.498 725.5C827.36 720.586 828.026 715.919 829.498 711.5Z" fill="#A6A6A6"/>
<path fill-rule="evenodd" clip-rule="evenodd" d="M401.5 739.5C402.01 746.25 403.01 752.916 404.5 759.5C386.851 760.581 369.184 760.748 351.5 760C345.392 759.645 339.392 758.645 333.5 757C330.749 756.484 328.416 755.317 326.5 753.5C347.288 740.903 369.621 732.236 393.5 727.5C395.262 727.643 396.929 727.309 398.5 726.5C399.041 731.08 400.041 735.414 401.5 739.5Z" fill="#F7F7F7"/>
<path fill-rule="evenodd" clip-rule="evenodd" d="M630.5 725.5C656.599 731.088 681.266 740.421 704.5 753.5C695.293 757.592 685.627 759.758 675.5 760C659.142 760.773 642.808 760.607 626.5 759.5C629.049 748.319 630.383 736.986 630.5 725.5Z" fill="#F9F9F9"/>
<path fill-rule="evenodd" clip-rule="evenodd" d="M604.5 720.5C606.5 720.5 608.5 720.5 610.5 720.5C610.825 728.019 610.492 735.352 609.5 742.5C609.5 735.5 609.5 728.5 609.5 721.5C607.585 721.784 605.919 721.451 604.5 720.5Z" fill="#CBCBCB"/>
<path fill-rule="evenodd" clip-rule="evenodd" d="M401.5 739.5C400.041 735.414 399.041 731.08 398.5 726.5C396.929 727.309 395.262 727.643 393.5 727.5C395.438 725.837 397.772 725.171 400.5 725.5C400.998 730.152 401.331 734.819 401.5 739.5Z" fill="#CECECE"/>
<path fill-rule="evenodd" clip-rule="evenodd" d="M421.5 746.5C422.482 749.962 422.815 753.629 422.5 757.5C425.167 757.5 427.833 757.5 430.5 757.5C427.713 758.477 424.713 758.81 421.5 758.5C421.5 754.5 421.5 750.5 421.5 746.5Z" fill="#5D5D5D"/>
<path fill-rule="evenodd" clip-rule="evenodd" d="M552.5 750.5C552.5 751.833 552.5 753.167 552.5 754.5C546.642 754.822 540.975 754.489 535.5 753.5C540.833 753.5 546.167 753.5 551.5 753.5C551.263 752.209 551.596 751.209 552.5 750.5Z" fill="#BDBDBD"/>
<path fill-rule="evenodd" clip-rule="evenodd" d="M588.5 756.5C595.415 756.602 602.082 756.602 608.5 756.5C609.043 756.56 609.376 756.893 609.5 757.5C608.667 757.833 607.833 758.167 607 758.5C600.676 757.934 594.509 757.268 588.5 756.5Z" fill="#C1C1C1"/>
<path fill-rule="evenodd" clip-rule="evenodd" d="M532.5 847.5C527.923 848.99 523.09 849.656 518 849.5C514.648 849.498 511.482 849.165 508.5 848.5C516.517 848.499 524.517 848.166 532.5 847.5Z" fill="#343434"/>
</g>
</g>
<defs>
<clipPath id="clip0_323_3067">
<rect width="941" height="704" fill="white" transform="translate(55 170)"/>
</clipPath>
</defs>
</svg>
