<svg width="506" height="54" viewBox="0 0 506 54" fill="none" xmlns="http://www.w3.org/2000/svg">
<mask id="mask0_41_300" style="mask-type:luminance" maskUnits="userSpaceOnUse" x="0" y="0" width="506" height="54">
<path d="M506 0H0V53.0157H506V0Z" fill="white"/>
<path d="M69.8062 29.1399L83.0996 4.49073H100.013L76.3342 48.3379H59.4207L52.8333 27.2438L45.9492 48.3379H29.0357L5.9502 4.49073H22.8637L35.8011 29.1399L44.5249 4.49073H61.4384L69.8062 29.1399ZM146.12 48.3379H129.207L125.586 41.7015H102.145L98.5248 48.3379H81.6113L105.409 4.49073H122.322L146.12 48.3379ZM113.895 20.0742L107.961 30.9175H119.771L113.895 20.0742ZM163.633 48.3379H146.72V4.49073L163.633 48.3379ZM187.965 29.1992V4.49073H204.878V48.3379H187.965L163.633 23.6294V48.3379H146.72V4.49073H163.633L187.965 29.1992ZM225.935 48.3379H209.022V4.49073L225.935 48.3379ZM250.267 29.1992V4.49073H267.181V48.3379H250.267L225.935 23.6294V48.3379H209.022V4.49073H225.935L250.267 29.1992ZM332.27 48.3379H315.357L311.737 41.7015H288.295L284.675 48.3379H267.762L291.559 4.49073H308.473L332.27 48.3379ZM300.046 20.0742L294.111 30.9175H305.921L300.046 20.0742ZM326.932 26.4736C326.932 22.0888 328.257 18.1387 330.908 14.623C333.598 11.1073 337.238 8.36197 341.828 6.38683C346.457 4.37223 351.579 3.36493 357.199 3.36493C362.46 3.36493 367.148 4.19447 371.263 5.85355C375.418 7.47318 378.76 9.76424 381.293 12.7269C383.864 15.6501 385.466 19.0077 386.1 22.7999H368.534C367.781 20.7458 366.297 19.1064 364.083 17.8819C361.906 16.6574 359.632 16.045 357.258 16.045C355.161 16.045 353.143 16.4598 351.205 17.2894C349.306 18.1189 347.742 19.3238 346.516 20.9038C345.329 22.4838 344.736 24.3404 344.736 26.4736C344.736 28.6067 345.329 30.4633 346.516 32.0433C347.742 33.5839 349.306 34.769 351.205 35.5985C353.143 36.428 355.161 36.8428 357.258 36.8428C359.869 36.8428 362.163 36.2701 364.142 35.1245C366.119 33.9789 367.564 32.3396 368.474 30.2065H386.041C385.367 33.9592 383.765 37.297 381.234 40.2202C378.7 43.1434 375.358 45.4345 371.204 47.0936C367.089 48.7132 362.421 49.5229 357.199 49.5229C351.62 49.5229 346.516 48.5156 341.887 46.501C337.258 44.4864 333.598 41.7213 330.908 38.2056C328.257 34.6899 326.932 30.7792 326.932 26.4736ZM423.033 48.3379L410.867 34.1764H405.111V48.3379H389.088V4.49073H423.271C426.95 4.49073 430.194 5.10306 433.003 6.32757C435.852 7.55208 438.048 9.27041 439.591 11.4826C441.173 13.6551 441.965 16.1834 441.965 19.0669V19.304C441.965 23.0567 440.856 26.1575 438.641 28.6067C436.464 31.0558 433.437 32.6951 429.561 33.5246L442.321 48.3379H423.033ZM426.357 19.304C426.357 18.1189 426.079 17.2696 425.526 16.7561C425.01 16.203 424.298 15.8673 423.389 15.7488C422.518 15.6303 421.173 15.571 419.354 15.571H417.455C416.227 15.6105 412.114 15.6303 405.111 15.6303V22.8591H419.294H419.354C421.173 22.8591 422.518 22.7999 423.389 22.6814C424.298 22.5629 425.01 22.2666 425.526 21.7926C426.079 21.2791 426.357 20.4496 426.357 19.304ZM467.672 19.8965L481.025 4.49073H497.938L477.049 29.9695V48.3379H458.948V29.9695L438.177 4.49073H455.091L467.672 19.8965Z" fill="black"/>
</mask>
<g mask="url(#mask0_41_300)">
<path d="M69.8061 29.14L66.8479 30.141L69.1526 36.9297L72.5562 30.6185L69.8061 29.14ZM83.0996 4.49078V1.3722H81.2339L80.3495 3.01226L83.0996 4.49078ZM100.013 4.49078L102.762 5.97085L105.246 1.3722H100.013V4.49078ZM76.3342 48.3379V51.4565H78.1986L79.0834 49.818L76.3342 48.3379ZM59.4206 48.3379L56.4388 49.2661L57.1227 51.4565H59.4206V48.3379ZM52.8333 27.2439L55.8151 26.3156L52.8989 16.9769L49.8635 26.2777L52.8333 27.2439ZM45.9492 48.3379V51.4565H48.2165L48.919 49.304L45.9492 48.3379ZM29.0357 48.3379L26.2709 49.789L27.1489 51.4565H29.0357V48.3379ZM5.95019 4.49078V1.3722H0.779541L3.18546 5.94185L5.95019 4.49078ZM22.8637 4.49078L25.6303 3.04329L24.7532 1.3722H22.8637V4.49078ZM35.8011 29.14L33.0345 30.5875L36.3594 36.9225L38.746 30.1791L35.8011 29.14ZM44.5249 4.49078V1.3722H42.3158L41.5799 3.45167L44.5249 4.49078ZM61.4384 4.49078L64.3966 3.48971L63.6778 1.3722H61.4384V4.49078ZM69.8061 29.14L72.5562 30.6185L85.8496 5.96929L83.0996 4.49078L80.3495 3.01226L67.0561 27.6615L69.8061 29.14ZM83.0996 4.49078V7.60935H100.013V4.49078V1.3722H83.0996V4.49078ZM100.013 4.49078L97.2638 3.0107L73.5849 46.8578L76.3342 48.3379L79.0834 49.818L102.762 5.97085L100.013 4.49078ZM76.3342 48.3379V45.2193H59.4206V48.3379V51.4565H76.3342V48.3379ZM59.4206 48.3379L62.4025 47.4097L55.8151 26.3156L52.8333 27.2439L49.8515 28.1721L56.4388 49.2661L59.4206 48.3379ZM52.8333 27.2439L49.8635 26.2777L42.9794 47.3718L45.9492 48.3379L48.919 49.304L55.8031 28.21L52.8333 27.2439ZM45.9492 48.3379V45.2193H29.0357V48.3379V51.4565H45.9492V48.3379ZM29.0357 48.3379L31.8004 46.8868L8.71492 3.0397L5.95019 4.49078L3.18546 5.94185L26.2709 49.789L29.0357 48.3379ZM5.95019 4.49078V7.60935H22.8637V4.49078V1.3722H5.95019V4.49078ZM22.8637 4.49078L20.0971 5.93826L33.0345 30.5875L35.8011 29.14L38.5677 27.6925L25.6303 3.04329L22.8637 4.49078ZM35.8011 29.14L38.746 30.1791L47.4698 5.52988L44.5249 4.49078L41.5799 3.45167L32.8561 28.1009L35.8011 29.14ZM44.5249 4.49078V7.60935H61.4384V4.49078V1.3722H44.5249V4.49078ZM61.4384 4.49078L58.4802 5.49184L66.8479 30.141L69.8061 29.14L72.7644 28.1389L64.3966 3.48971L61.4384 4.49078ZM146.12 48.3379V51.4565H151.366L148.866 46.8521L146.12 48.3379ZM129.206 48.3379L126.463 49.8295L127.351 51.4565H129.206V48.3379ZM125.586 41.7016L128.329 40.21L127.442 38.583H125.586V41.7016ZM102.145 41.7016V38.583H100.289L99.4018 40.21L102.145 41.7016ZM98.5248 48.3379V51.4565H100.38L101.268 49.8295L98.5248 48.3379ZM81.6112 48.3379L78.8651 46.8521L76.3662 51.4565H81.6112V48.3379ZM105.409 4.49078V1.3722H103.549L102.663 3.00493L105.409 4.49078ZM122.322 4.49078L125.069 3.00493L124.182 1.3722H122.322V4.49078ZM113.895 20.0743L116.643 18.5905L113.909 13.5456L111.154 18.5789L113.895 20.0743ZM107.961 30.9176L105.22 29.4222L102.695 34.0361H107.961V30.9176ZM119.771 30.9176V34.0361H125.012L122.518 29.4337L119.771 30.9176ZM146.12 48.3379V45.2193H129.206V48.3379V51.4565H146.12V48.3379ZM129.206 48.3379L131.949 46.8463L128.329 40.21L125.586 41.7016L122.843 43.1932L126.463 49.8295L129.206 48.3379ZM125.586 41.7016V38.583H102.145V41.7016V44.8202H125.586V41.7016ZM102.145 41.7016L99.4018 40.21L95.7817 46.8463L98.5248 48.3379L101.268 49.8295L104.888 43.1932L102.145 41.7016ZM98.5248 48.3379V45.2193H81.6112V48.3379V51.4565H98.5248V48.3379ZM81.6112 48.3379L84.3574 49.8237L108.155 5.97662L105.409 4.49078L102.663 3.00493L78.8651 46.8521L81.6112 48.3379ZM105.409 4.49078V7.60935H122.322V4.49078V1.3722H105.409V4.49078ZM122.322 4.49078L119.576 5.97662L143.374 49.8237L146.12 48.3379L148.866 46.8521L125.069 3.00493L122.322 4.49078ZM113.895 20.0743L111.154 18.5789L105.22 29.4222L107.961 30.9176L110.702 32.4129L116.636 21.5696L113.895 20.0743ZM107.961 30.9176V34.0361H119.771V30.9176V27.799H107.961V30.9176ZM119.771 30.9176L122.518 29.4337L116.643 18.5905L113.895 20.0743L111.148 21.5581L117.023 32.4014L119.771 30.9176ZM163.633 48.3379V51.4565H168.184L166.549 47.2171L163.633 48.3379ZM146.72 48.3379H143.597V51.4565H146.72V48.3379ZM146.72 4.49078L149.635 3.36996L143.597 4.49078H146.72ZM187.965 29.1992L185.738 31.3857L191.088 36.8191V29.1992H187.965ZM187.965 4.49078V1.3722H184.841V4.49078H187.965ZM204.878 4.49078H208.002V1.3722H204.878V4.49078ZM204.878 48.3379V51.4565H208.002V48.3379H204.878ZM187.965 48.3379L185.738 50.5243L186.656 51.4565H187.965V48.3379ZM163.633 23.6295L165.86 21.443L160.51 16.0095V23.6295H163.633ZM163.633 48.3379V51.4565H166.757V48.3379H163.633ZM146.72 48.3379H143.597V51.4565H146.72V48.3379ZM146.72 4.49078V1.3722H143.597V4.49078H146.72ZM163.633 4.49078L165.86 2.30435L164.943 1.3722H163.633V4.49078ZM163.633 48.3379V45.2193H146.72V48.3379V51.4565H163.633V48.3379ZM146.72 48.3379H149.843V4.49078H146.72H143.597V48.3379H146.72ZM146.72 4.49078L143.805 5.61159L160.719 49.4587L163.633 48.3379L166.549 47.2171L149.635 3.36996L146.72 4.49078ZM204.878 48.3379V45.2193H187.965V48.3379V51.4565H204.878V48.3379ZM187.965 48.3379V51.4565H204.878V48.3379V45.2193H187.965V48.3379ZM187.965 29.1992H191.088V4.49078H187.965H184.841V29.1992H187.965ZM187.965 4.49078V7.60935H204.878V4.49078V1.3722H187.965V4.49078ZM204.878 4.49078H201.755V48.3379H204.878H208.002V4.49078H204.878ZM204.878 48.3379V45.2193H187.965V48.3379V51.4565H204.878V48.3379ZM187.965 48.3379L190.192 46.1515L165.86 21.443L163.633 23.6295L161.406 25.8159L185.738 50.5243L187.965 48.3379ZM163.633 23.6295H160.51V48.3379H163.633H166.757V23.6295H163.633ZM163.633 48.3379V45.2193H146.72V48.3379V51.4565H163.633V48.3379ZM146.72 48.3379H149.843V4.49078H146.72H143.597V48.3379H146.72ZM146.72 4.49078V7.60935H163.633V4.49078V1.3722H146.72V4.49078ZM163.633 4.49078L161.406 6.67721L185.738 31.3857L187.965 29.1992L190.192 27.0128L165.86 2.30435L163.633 4.49078ZM225.935 48.3379V51.4565H230.485L228.849 47.2171L225.935 48.3379ZM209.022 48.3379H205.898V51.4565H209.022V48.3379ZM209.022 4.49078L211.936 3.36996L205.898 4.49078H209.022ZM250.267 29.1992L248.04 31.3857L253.39 36.8191V29.1992H250.267ZM250.267 4.49078V1.3722H247.144V4.49078H250.267ZM267.181 4.49078H270.304V1.3722H267.181V4.49078ZM267.181 48.3379V51.4565H270.304V48.3379H267.181ZM250.267 48.3379L248.04 50.5243L248.957 51.4565H250.267V48.3379ZM225.935 23.6295L228.162 21.443L222.812 16.0095V23.6295H225.935ZM225.935 48.3379V51.4565H229.059V48.3379H225.935ZM209.022 48.3379H205.898V51.4565H209.022V48.3379ZM209.022 4.49078V1.3722H205.898V4.49078H209.022ZM225.935 4.49078L228.162 2.30435L227.244 1.3722H225.935V4.49078ZM225.935 48.3379V45.2193H209.022V48.3379V51.4565H225.935V48.3379ZM209.022 48.3379H212.145V4.49078H209.022H205.898V48.3379H209.022ZM209.022 4.49078L206.106 5.61159L223.02 49.4587L225.935 48.3379L228.849 47.2171L211.936 3.36996L209.022 4.49078ZM267.181 48.3379V45.2193H250.267V48.3379V51.4565H267.181V48.3379ZM250.267 48.3379V51.4565H267.181V48.3379V45.2193H250.267V48.3379ZM250.267 29.1992H253.39V4.49078H250.267H247.144V29.1992H250.267ZM250.267 4.49078V7.60935H267.181V4.49078V1.3722H250.267V4.49078ZM267.181 4.49078H264.057V48.3379H267.181H270.304V4.49078H267.181ZM267.181 48.3379V45.2193H250.267V48.3379V51.4565H267.181V48.3379ZM250.267 48.3379L252.494 46.1515L228.162 21.443L225.935 23.6295L223.708 25.8159L248.04 50.5243L250.267 48.3379ZM225.935 23.6295H222.812V48.3379H225.935H229.059V23.6295H225.935ZM225.935 48.3379V45.2193H209.022V48.3379V51.4565H225.935V48.3379ZM209.022 48.3379H212.145V4.49078H209.022H205.898V48.3379H209.022ZM209.022 4.49078V7.60935H225.935V4.49078V1.3722H209.022V4.49078ZM225.935 4.49078L223.708 6.67721L248.04 31.3857L250.267 29.1992L252.494 27.0128L228.162 2.30435L225.935 4.49078ZM332.27 48.3379V51.4565H337.516L335.017 46.8521L332.27 48.3379ZM315.357 48.3379L312.614 49.8295L313.501 51.4565H315.357V48.3379ZM311.737 41.7016L314.481 40.21L313.592 38.583H311.737V41.7016ZM288.295 41.7016V38.583H286.44L285.553 40.21L288.295 41.7016ZM284.675 48.3379V51.4565H286.53L287.419 49.8295L284.675 48.3379ZM267.761 48.3379L265.016 46.8521L262.517 51.4565H267.761V48.3379ZM291.559 4.49078V1.3722H289.699L288.814 3.00493L291.559 4.49078ZM308.473 4.49078L311.22 3.00493L310.333 1.3722H308.473V4.49078ZM300.046 20.0743L302.793 18.5905L300.06 13.5456L297.305 18.5789L300.046 20.0743ZM294.111 30.9176L291.37 29.4222L288.845 34.0361H294.111V30.9176ZM305.921 30.9176V34.0361H311.162L308.668 29.4337L305.921 30.9176ZM332.27 48.3379V45.2193H315.357V48.3379V51.4565H332.27V48.3379ZM315.357 48.3379L318.101 46.8463L314.481 40.21L311.737 41.7016L308.994 43.1932L312.614 49.8295L315.357 48.3379ZM311.737 41.7016V38.583H288.295V41.7016V44.8202H311.737V41.7016ZM288.295 41.7016L285.553 40.21L281.933 46.8463L284.675 48.3379L287.419 49.8295L291.039 43.1932L288.295 41.7016ZM284.675 48.3379V45.2193H267.761V48.3379V51.4565H284.675V48.3379ZM267.761 48.3379L270.509 49.8237L294.306 5.97662L291.559 4.49078L288.814 3.00493L265.016 46.8521L267.761 48.3379ZM291.559 4.49078V7.60935H308.473V4.49078V1.3722H291.559V4.49078ZM308.473 4.49078L305.727 5.97662L329.525 49.8237L332.27 48.3379L335.017 46.8521L311.22 3.00493L308.473 4.49078ZM300.046 20.0743L297.305 18.5789L291.37 29.4222L294.111 30.9176L296.852 32.4129L302.786 21.5696L300.046 20.0743ZM294.111 30.9176V34.0361H305.921V30.9176V27.799H294.111V30.9176ZM305.921 30.9176L308.668 29.4337L302.793 18.5905L300.046 20.0743L297.298 21.5581L303.174 32.4014L305.921 30.9176ZM330.908 14.623L328.425 12.7297L328.419 12.7385L328.413 12.7474L330.908 14.623ZM341.828 6.38687L343.063 9.25081L343.076 9.24566L341.828 6.38687ZM371.263 5.85359L370.094 8.74529L370.109 8.75199L370.126 8.75854L371.263 5.85359ZM381.293 12.7269L378.916 14.7512L378.93 14.7682L378.946 14.785L381.293 12.7269ZM386.1 22.7999V25.9185H389.786L389.18 22.2872L386.1 22.7999ZM368.534 22.7999L365.599 23.8702L366.349 25.9185H368.534V22.7999ZM364.083 17.8819L362.549 20.5987L362.558 20.6046L362.569 20.6104L364.083 17.8819ZM351.205 17.2894L349.974 14.423L349.963 14.4276L349.952 14.4323L351.205 17.2894ZM346.516 20.9038L344.047 18.9935L344.032 19.013L344.018 19.0327L346.516 20.9038ZM346.516 32.0434L344.018 33.9145L344.043 33.9496L344.071 33.9839L346.516 32.0434ZM351.205 35.5985L349.952 38.4556L349.963 38.4603L349.974 38.465L351.205 35.5985ZM368.474 30.2065V27.088H366.41L365.599 28.9845L368.474 30.2065ZM386.041 30.2065L389.114 30.7559L389.771 27.088H386.041V30.2065ZM371.204 47.0936L372.349 49.995L372.363 49.9892L371.204 47.0936ZM330.908 38.2057L328.413 40.0813L328.419 40.0902L328.425 40.0989L330.908 38.2057ZM326.932 26.4736H330.056C330.056 22.7683 331.158 19.4758 333.402 16.4987L330.908 14.623L328.413 12.7474C325.355 16.8015 323.809 21.4095 323.809 26.4736H326.932ZM330.908 14.623L333.39 16.5163C335.715 13.4774 338.901 11.042 343.063 9.25081L341.828 6.38687L340.591 3.52308C335.573 5.68223 331.482 8.73734 328.425 12.7297L330.908 14.623ZM341.828 6.38687L343.076 9.24566C347.269 7.42068 351.96 6.48354 357.199 6.48354V3.36497V0.246399C351.198 0.246399 345.643 1.32379 340.579 3.52807L341.828 6.38687ZM357.199 3.36497V6.48354C362.132 6.48354 366.413 7.26116 370.094 8.74529L371.263 5.85359L372.432 2.9619C367.884 1.12789 362.788 0.246399 357.199 0.246399V3.36497ZM371.263 5.85359L370.126 8.75854C373.87 10.2182 376.764 12.2326 378.916 14.7512L381.293 12.7269L383.668 10.7027C380.757 7.29593 376.964 4.7281 372.399 2.94864L371.263 5.85359ZM381.293 12.7269L378.946 14.785C381.138 17.2769 382.481 20.1011 383.019 23.3126L386.1 22.7999L389.18 22.2872C388.45 17.9144 386.59 14.0232 383.639 10.6688L381.293 12.7269ZM386.1 22.7999V19.6813H368.534V22.7999V25.9185H386.1V22.7999ZM368.534 22.7999L371.466 21.7296C370.417 18.8613 368.36 16.6816 365.594 15.1535L364.083 17.8819L362.569 20.6104C364.236 21.5313 365.145 22.6303 365.599 23.8702L368.534 22.7999ZM364.083 17.8819L365.616 15.1652C362.997 13.6915 360.197 12.9265 357.258 12.9265V16.0451V19.1637C359.065 19.1637 360.815 19.6232 362.549 20.5987L364.083 17.8819ZM357.258 16.0451V12.9265C354.734 12.9265 352.298 13.4281 349.974 14.423L351.205 17.2894L352.434 20.1558C353.986 19.4916 355.585 19.1637 357.258 19.1637V16.0451ZM351.205 17.2894L349.952 14.4323C347.592 15.4632 345.604 16.9863 344.047 18.9935L346.516 20.9038L348.984 22.8141C349.879 21.6612 351.017 20.7747 352.456 20.1465L351.205 17.2894ZM346.516 20.9038L344.018 19.0327C342.392 21.1967 341.612 23.723 341.612 26.4736H344.736H347.859C347.859 24.958 348.265 23.7712 349.015 22.775L346.516 20.9038ZM344.736 26.4736H341.612C341.612 29.2242 342.392 31.7505 344.018 33.9145L346.516 32.0434L349.015 30.1722C348.265 29.176 347.859 27.9892 347.859 26.4736H344.736ZM346.516 32.0434L344.071 33.9839C345.631 35.9433 347.611 37.4332 349.952 38.4556L351.205 35.5985L352.456 32.7415C350.998 32.1048 349.854 31.2246 348.96 30.1028L346.516 32.0434ZM351.205 35.5985L349.974 38.465C352.298 39.4598 354.734 39.9614 357.258 39.9614V36.8428V33.7243C355.585 33.7243 353.986 33.3964 352.434 32.7321L351.205 35.5985ZM357.258 36.8428V39.9614C360.339 39.9614 363.189 39.2806 365.708 37.8222L364.142 35.1245L362.574 32.4268C361.136 33.2595 359.397 33.7243 357.258 33.7243V36.8428ZM364.142 35.1245L365.708 37.8222C368.281 36.333 370.176 34.1712 371.348 31.4285L368.474 30.2065L365.599 28.9845C364.949 30.5081 363.959 31.6249 362.574 32.4268L364.142 35.1245ZM368.474 30.2065V33.3251H386.041V30.2065V27.088H368.474V30.2065ZM386.041 30.2065L382.965 29.6572C382.392 32.8501 381.04 35.6749 378.871 38.1802L381.234 40.2203L383.595 42.2603C386.489 38.9193 388.341 35.0682 389.114 30.7559L386.041 30.2065ZM381.234 40.2203L378.871 38.1802C376.712 40.6715 373.806 42.6952 370.044 44.198L371.204 47.0936L372.363 49.9892C376.909 48.1739 380.688 45.6152 383.595 42.2603L381.234 40.2203ZM371.204 47.0936L370.058 44.1924C366.367 45.6449 362.098 46.4044 357.199 46.4044V49.523V52.6415C362.743 52.6415 367.81 51.7816 372.349 49.995L371.204 47.0936ZM357.199 49.523V46.4044C352.004 46.4044 347.33 45.4684 343.135 43.6423L341.887 46.5011L340.638 49.3599C345.701 51.563 351.234 52.6415 357.199 52.6415V49.523ZM341.887 46.5011L343.135 43.6423C338.923 41.8096 335.715 39.3508 333.39 36.3124L330.908 38.2057L328.425 40.0989C331.482 44.0918 335.592 47.1633 340.638 49.3599L341.887 46.5011ZM330.908 38.2057L333.402 36.33C331.15 33.3421 330.056 30.0868 330.056 26.4736H326.932H323.809C323.809 31.4719 325.364 36.0378 328.413 40.0813L330.908 38.2057ZM423.033 48.3379L420.662 50.3683L421.596 51.4565H423.033V48.3379ZM410.867 34.1765L413.238 32.1461L412.303 31.0579H410.867V34.1765ZM405.111 34.1765V31.0579H401.987V34.1765H405.111ZM405.111 48.3379V51.4565H408.234V48.3379H405.111ZM389.087 48.3379H385.964V51.4565H389.087V48.3379ZM389.087 4.49078V1.3722H385.964V4.49078H389.087ZM433.003 6.32761L431.752 9.18563L431.768 9.19203L433.003 6.32761ZM439.591 11.4826L437.026 13.2649L437.045 13.2911L437.064 13.3168L439.591 11.4826ZM438.641 28.6067L436.322 26.5163L436.313 26.5268L436.303 26.5372L438.641 28.6067ZM429.561 33.5247L428.907 30.4753L423.763 31.5759L427.192 35.5582L429.561 33.5247ZM442.321 48.3379V51.4565H449.125L444.688 46.3044L442.321 48.3379ZM425.526 16.7561L423.236 18.8782L423.314 18.9628L423.4 19.0414L425.526 16.7561ZM423.389 15.7488L422.966 18.8389L422.985 18.8412L423.389 15.7488ZM417.455 15.5711V12.4525H417.403L417.353 12.4541L417.455 15.5711ZM405.111 15.6303V12.5117H401.987V15.6303H405.111ZM405.111 22.8592H401.987V25.9777H405.111V22.8592ZM423.389 22.6814L422.985 19.589L422.966 19.5914L423.389 22.6814ZM425.526 21.7926L427.643 24.0841L427.65 24.0779L425.526 21.7926ZM423.033 48.3379L425.404 46.3076L413.238 32.1461L410.867 34.1765L408.497 36.2068L420.662 50.3683L423.033 48.3379ZM410.867 34.1765V31.0579H405.111V34.1765V37.295H410.867V34.1765ZM405.111 34.1765H401.987V48.3379H405.111H408.234V34.1765H405.111ZM405.111 48.3379V45.2193H389.087V48.3379V51.4565H405.111V48.3379ZM389.087 48.3379H392.211V4.49078H389.087H385.964V48.3379H389.087ZM389.087 4.49078V7.60935H423.271V4.49078V1.3722H389.087V4.49078ZM423.271 4.49078V7.60935C426.603 7.60935 429.408 8.16383 431.752 9.18563L433.003 6.32761L434.253 3.4696C430.978 2.04238 427.295 1.3722 423.271 1.3722V4.49078ZM433.003 6.32761L431.768 9.19203C434.162 10.2215 435.864 11.5977 437.026 13.2649L439.591 11.4826L442.153 9.70035C440.229 6.94338 437.54 4.88294 434.239 3.46321L433.003 6.32761ZM439.591 11.4826L437.064 13.3168C438.229 14.9165 438.841 16.7912 438.841 19.067H441.964H445.088C445.088 15.5754 444.117 12.394 442.116 9.64843L439.591 11.4826ZM441.964 19.067H438.841V19.304H441.964H445.088V19.067H441.964ZM441.964 19.304H438.841C438.841 22.3978 437.948 24.7194 436.322 26.5163L438.641 28.6067L440.959 30.6971C443.764 27.5958 445.088 23.7155 445.088 19.304H441.964ZM438.641 28.6067L436.303 26.5372C434.656 28.3921 432.272 29.7553 428.907 30.4753L429.561 33.5247L430.216 36.574C434.604 35.635 438.273 33.7194 440.977 30.6762L438.641 28.6067ZM429.561 33.5247L427.192 35.5582L439.951 50.3714L442.321 48.3379L444.688 46.3044L431.929 31.4912L429.561 33.5247ZM442.321 48.3379V45.2193H423.033V48.3379V51.4565H442.321V48.3379ZM426.357 19.304H429.48C429.48 17.7369 429.125 15.8388 427.65 14.4708L425.526 16.7561L423.4 19.0414C423.316 18.9636 423.258 18.8866 423.221 18.8258C423.185 18.767 423.175 18.7341 423.178 18.7437C423.182 18.7543 423.196 18.8022 423.21 18.8981C423.222 18.994 423.233 19.1273 423.233 19.304H426.357ZM425.526 16.7561L427.814 14.6341C426.703 13.4405 425.265 12.8481 423.792 12.6564L423.389 15.7488L422.985 18.8412C423.169 18.8652 423.253 18.9009 423.272 18.9095C423.28 18.9137 423.278 18.9132 423.267 18.9059C423.257 18.8984 423.246 18.8886 423.236 18.8782L425.526 16.7561ZM423.389 15.7488L423.811 12.6588C422.719 12.5103 421.198 12.4525 419.354 12.4525V15.5711V18.6896C421.148 18.6896 422.316 18.7503 422.966 18.8389L423.389 15.7488ZM419.354 15.5711V12.4525H417.455V15.5711V18.6896H419.354V15.5711ZM417.455 15.5711L417.353 12.4541C416.191 12.4915 412.143 12.5117 405.111 12.5117V15.6303V18.7489C412.082 18.7489 416.265 18.7296 417.555 18.6881L417.455 15.5711ZM405.111 15.6303H401.987V22.8592H405.111H408.234V15.6303H405.111ZM405.111 22.8592V25.9777H419.294V22.8592V19.7406H405.111V22.8592ZM419.294 22.8592V25.9777H419.354V22.8592V19.7406H419.294V22.8592ZM419.354 22.8592V25.9777C421.198 25.9777 422.719 25.9199 423.811 25.7714L423.389 22.6814L422.966 19.5914C422.316 19.6799 421.148 19.7406 419.354 19.7406V22.8592ZM423.389 22.6814L423.792 25.7738C425.146 25.5976 426.527 25.1137 427.643 24.0841L425.526 21.7926L423.406 19.5011C423.495 19.4195 423.452 19.5282 422.985 19.589L423.389 22.6814ZM425.526 21.7926L427.65 24.0779C429.108 22.7268 429.48 20.8698 429.48 19.304H426.357H423.233C423.233 19.4665 423.222 19.5872 423.211 19.6715C423.199 19.7559 423.186 19.795 423.185 19.7991C423.185 19.8022 423.196 19.7673 423.232 19.7094C423.267 19.6498 423.324 19.5781 423.4 19.5073L425.526 21.7926ZM467.672 19.8965L465.251 21.8673L467.6 24.7443L470.033 21.9373L467.672 19.8965ZM481.025 4.49078V1.3722H479.597L478.662 2.44998L481.025 4.49078ZM497.938 4.49078L500.354 6.46624L504.532 1.3722H497.938V4.49078ZM477.049 29.9695L474.631 27.9941L473.925 28.8559V29.9695H477.049ZM477.049 48.3379V51.4565H480.172V48.3379H477.049ZM458.948 48.3379H455.825V51.4565H458.948V48.3379ZM458.948 29.9695H462.072V28.8607L461.37 28.0009L458.948 29.9695ZM438.177 4.49078V1.3722H431.607L435.755 6.45937L438.177 4.49078ZM455.091 4.49078L457.511 2.51999L456.574 1.3722H455.091V4.49078ZM467.672 19.8965L470.033 21.9373L483.386 6.53157L481.025 4.49078L478.662 2.44998L465.309 17.8557L467.672 19.8965ZM481.025 4.49078V7.60935H497.938V4.49078V1.3722H481.025V4.49078ZM497.938 4.49078L495.521 2.51532L474.631 27.9941L477.049 29.9695L479.465 31.945L500.354 6.46624L497.938 4.49078ZM477.049 29.9695H473.925V48.3379H477.049H480.172V29.9695H477.049ZM477.049 48.3379V45.2193H458.948V48.3379V51.4565H477.049V48.3379ZM458.948 48.3379H462.072V29.9695H458.948H455.825V48.3379H458.948ZM458.948 29.9695L461.37 28.0009L440.599 2.52218L438.177 4.49078L435.755 6.45937L456.526 31.9381L458.948 29.9695ZM438.177 4.49078V7.60935H455.091V4.49078V1.3722H438.177V4.49078ZM455.091 4.49078L452.67 6.46156L465.251 21.8673L467.672 19.8965L470.093 17.9257L457.511 2.51999L455.091 4.49078Z" fill="#9FF820"/>
</g>
</svg>
